<?xml version="1.0" encoding="UTF-8" standalone="no"?>
<svg xmlns:dc="http://purl.org/dc/elements/1.1/" xmlns:cc="http://creativecommons.org/ns#" xmlns:rdf="http://www.w3.org/1999/02/22-rdf-syntax-ns#" xmlns:svg="http://www.w3.org/2000/svg" xmlns="http://www.w3.org/2000/svg" xmlns:sodipodi="http://sodipodi.sourceforge.net/DTD/sodipodi-0.dtd" xmlns:inkscape="http://www.inkscape.org/namespaces/inkscape" height="1080" width="2048" inkscape:version="1.0 (4035a4f, 2020-05-01)" sodipodi:docname="HomeBackground.svg" xml:space="preserve" enable-background="new 0 0 2850 1800" viewBox="0 0 2048 1080" y="0px" x="0px" id="Layer_1" version="1.1">
   <metadata id="metadata6934">
      <rdf:RDF>
         <cc:Work rdf:about="">
            <dc:format>image/svg+xml</dc:format>
            <dc:type rdf:resource="http://purl.org/dc/dcmitype/StillImage" />
            <dc:title></dc:title>
         </cc:Work>
      </rdf:RDF>
   </metadata>
   <defs id="defs6932" />
   <sodipodi:namedview showborder="false" fit-margin-bottom="0" fit-margin-right="0" fit-margin-left="0" fit-margin-top="0" inkscape:snap-global="false" inkscape:current-layer="Layer_1" inkscape:window-maximized="0" inkscape:window-y="26" inkscape:window-x="0" inkscape:cy="540" inkscape:cx="1024" inkscape:zoom="0.28833869" showgrid="false" id="namedview6930" inkscape:window-height="1024" inkscape:window-width="1680" inkscape:pageshadow="2" inkscape:pageopacity="0" guidetolerance="10" gridtolerance="10" objecttolerance="10" borderopacity="1" bordercolor="#666666" pagecolor="#ffffff" />
   <g transform="matrix(0.71806814,0,0,0.59974809,1.5057889,0.45340956)" id="g6927">
      <linearGradient y2="1804.6407" x2="1425" y1="4.6406999" x1="1425" gradientUnits="userSpaceOnUse" id="SVGID_1_">
         <stop id="stop6138" style="stop-color:#7C4A74" offset="0" />
         <stop id="stop6140" style="stop-color:#FA798D" offset="1" />
      </linearGradient>
      <rect x="0" style="fill:url(#SVGID_1_)" id="rect6143" height="1800" width="2850" fill="url(#SVGID_1_)" y="0" />
      <circle id="circle6145" r="597.05103" cy="990.66602" cx="1409.8051" fill="#e5edd4" opacity="0.08" />
      <circle id="circle6147" r="429.67001" cy="990.66602" cx="1409.8051" fill="#e5edd4" opacity="0.08" />
      <circle id="circle6149" r="316.806" cy="990.66602" cx="1409.8051" fill="#ffffff" />
      <g id="g6529">
         <g id="g6155">
            <g id="g6153">
               <path id="path6151" d="m 1707.48,264.501 c 0.588,-1.213 0.61,-2.531 -0.232,-3.621 -0.65,-0.842 -1.652,-1.314 -2.719,-1.312 -0.903,0.002 -1.843,0.357 -2.477,1.008 -1.051,1.079 -1.134,2.629 -0.467,3.931 0.733,1.433 2.861,1.965 4.201,1.101 1.462,-0.943 1.885,-2.668 1.101,-4.201 -0.011,-0.021 -0.021,-0.042 -0.032,-0.063 0.103,0.244 0.206,0.489 0.309,0.733 0,-0.019 -0.01,-0.037 -0.011,-0.056 0,0.544 0,1.088 0,1.632 0,-0.016 0,-0.033 0.01,-0.049 -0.103,0.244 -0.206,0.489 -0.309,0.733 0.01,-0.014 0.016,-0.028 0.023,-0.042 -0.16,0.207 -0.32,0.414 -0.48,0.621 0.012,-0.012 0.025,-0.024 0.037,-0.036 -0.207,0.16 -0.414,0.32 -0.621,0.48 0.016,-0.01 0.032,-0.019 0.048,-0.029 -0.244,0.103 -0.489,0.206 -0.733,0.31 0.038,-0.018 0.078,-0.03 0.12,-0.036 -0.272,0.037 -0.544,0.073 -0.816,0.11 0.071,-0.008 0.131,-0.009 0.202,-0.002 -0.272,-0.037 -0.544,-0.073 -0.816,-0.11 0.042,0.006 0.082,0.017 0.12,0.034 -0.244,-0.103 -0.489,-0.206 -0.733,-0.31 0.016,0.009 0.032,0.018 0.049,0.028 -0.207,-0.16 -0.414,-0.32 -0.621,-0.48 0.013,0.012 0.025,0.023 0.038,0.035 -0.16,-0.207 -0.32,-0.414 -0.48,-0.621 0.01,0.014 0.016,0.028 0.024,0.042 -0.103,-0.244 -0.206,-0.489 -0.309,-0.733 0,0.016 0.01,0.033 0.01,0.049 0,-0.544 0,-1.088 0,-1.632 0,0.019 -0.01,0.038 -0.01,0.056 0.103,-0.244 0.206,-0.489 0.309,-0.733 -0.01,0.021 -0.021,0.042 -0.031,0.064 -0.365,0.752 -0.538,1.536 -0.31,2.366 0.196,0.712 0.747,1.484 1.411,1.835 1.376,0.726 3.453,0.441 4.2,-1.102 z" fill="#ffffff" />
            </g>
         </g>
         <g id="g6161">
            <g id="g6159">
               <path id="path6157" d="m 1717.645,179.115 c -0.275,0.275 -0.551,0.55 -0.826,0.826 -1.137,1.137 -1.222,3.22 0,4.342 1.226,1.125 3.128,1.214 4.342,0 0.275,-0.275 0.55,-0.55 0.826,-0.826 1.137,-1.137 1.222,-3.22 0,-4.342 -1.226,-1.126 -3.129,-1.214 -4.342,0 z" fill="#ffffff" />
            </g>
         </g>
         <g id="g6167">
            <g id="g6165">
               <path id="path6163" d="m 1757.491,137.004 c -0.275,-0.275 -0.55,-0.55 -0.826,-0.826 -1.137,-1.137 -3.22,-1.222 -4.342,0 -1.125,1.226 -1.214,3.128 0,4.342 0.275,0.275 0.55,0.55 0.826,0.826 1.137,1.137 3.22,1.222 4.342,0 1.126,-1.225 1.214,-3.128 0,-4.342 z" fill="#ffffff" />
            </g>
         </g>
         <g id="g6173">
            <g id="g6171">
               <path id="path6169" d="m 1811.235,167.249 c 0,-0.275 0,-0.55 0,-0.826 0,-1.606 -1.412,-3.144 -3.07,-3.07 -1.663,0.075 -3.07,1.349 -3.07,3.07 0,0.275 0,0.55 0,0.826 0,1.606 1.412,3.144 3.07,3.07 1.663,-0.075 3.07,-1.349 3.07,-3.07 z" fill="#ffffff" />
            </g>
         </g>
         <g id="g6179">
            <g id="g6177">
               <path id="path6175" d="m 1760.824,334.04 c -0.028,-0.825 -0.056,-1.649 -0.084,-2.474 -0.055,-1.603 -1.373,-3.146 -3.07,-3.07 -1.617,0.072 -3.129,1.351 -3.07,3.07 0.028,0.825 0.056,1.649 0.084,2.474 0.055,1.603 1.373,3.146 3.07,3.07 1.616,-0.072 3.128,-1.351 3.07,-3.07 z" fill="#ffffff" />
            </g>
         </g>
         <g id="g6185">
            <g id="g6183">
               <path id="path6181" d="m 1726.941,381.409 c -0.275,-0.275 -0.55,-0.55 -0.826,-0.826 -1.137,-1.137 -3.22,-1.222 -4.342,0 -1.125,1.226 -1.214,3.128 0,4.342 0.275,0.275 0.55,0.55 0.826,0.826 1.137,1.137 3.22,1.222 4.342,0 1.125,-1.226 1.214,-3.129 0,-4.342 z" fill="#ffffff" />
            </g>
         </g>
         <g id="g6191">
            <g id="g6189">
               <path id="path6187" d="m 1647.155,280.601 c -0.17,0 -0.341,0 -0.511,0 -3.951,0 -3.958,6.14 0,6.14 0.17,0 0.341,0 0.511,0 3.951,0 3.958,-6.14 0,-6.14 -0.17,0 -0.341,0 -0.511,0 -3.951,0 -3.958,6.14 0,6.14 0.17,0 0.341,0 0.511,0 3.951,0 3.958,-6.14 0,-6.14 z" fill="#ffffff" />
            </g>
         </g>
         <g id="g6197">
            <g id="g6195">
               <path id="path6193" d="m 1576.146,280.601 c -0.275,0 -0.55,0 -0.826,0 -1.606,0 -3.145,1.412 -3.07,3.07 0.074,1.663 1.349,3.07 3.07,3.07 0.275,0 0.55,0 0.826,0 1.606,0 3.144,-1.412 3.07,-3.07 -0.075,-1.663 -1.349,-3.07 -3.07,-3.07 z" fill="#ffffff" />
            </g>
         </g>
         <g id="g6203">
            <g id="g6201">
               <path id="path6199" d="m 1575.913,355.506 c 0,-0.17 0,-0.341 0,-0.511 0,-3.951 -6.14,-3.958 -6.14,0 0,0.17 0,0.341 0,0.511 0,3.951 6.14,3.958 6.14,0 0,-0.17 0,-0.341 0,-0.511 0,-3.951 -6.14,-3.958 -6.14,0 0,0.17 0,0.341 0,0.511 0,3.951 6.14,3.958 6.14,0 z" fill="#ffffff" />
            </g>
         </g>
         <g id="g6209">
            <g id="g6207">
               <path id="path6205" d="m 1475.931,313.09 c 0.275,-0.275 0.55,-0.55 0.826,-0.826 1.137,-1.137 1.222,-3.22 0,-4.342 -1.226,-1.125 -3.128,-1.214 -4.342,0 -0.275,0.275 -0.551,0.55 -0.826,0.826 -1.137,1.137 -1.222,3.22 0,4.342 1.226,1.125 3.129,1.213 4.342,0 z" fill="#ffffff" />
            </g>
         </g>
         <g id="g6215">
            <g id="g6213">
               <path id="path6211" d="m 1421.742,255.365 c 3.951,0 3.958,-6.14 0,-6.14 -3.951,0 -3.958,6.14 0,6.14 z" fill="#ffffff" />
            </g>
         </g>
         <g id="g6221">
            <g id="g6219">
               <path id="path6217" d="m 1548.592,186.546 c -0.275,-0.275 -0.551,-0.55 -0.826,-0.826 -1.137,-1.137 -3.22,-1.222 -4.342,0 -1.125,1.226 -1.214,3.128 0,4.342 0.275,0.275 0.551,0.55 0.826,0.826 1.137,1.137 3.22,1.222 4.342,0 1.125,-1.226 1.213,-3.129 0,-4.342 z" fill="#ffffff" />
            </g>
         </g>
         <g id="g6227">
            <g id="g6225">
               <path id="path6223" d="m 1396.971,378.032 c -0.275,0 -0.55,0 -0.826,0 -1.606,0 -3.144,1.412 -3.07,3.07 0.074,1.663 1.349,3.07 3.07,3.07 0.275,0 0.551,0 0.826,0 1.606,0 3.145,-1.412 3.07,-3.07 -0.074,-1.663 -1.349,-3.07 -3.07,-3.07 z" fill="#ffffff" />
            </g>
         </g>
         <g id="g6233">
            <g id="g6231">
               <path id="path6229" d="m 1527.43,463.904 c -0.275,0 -0.551,0 -0.826,0 -1.606,0 -3.145,1.412 -3.07,3.07 0.074,1.663 1.349,3.07 3.07,3.07 0.275,0 0.55,0 0.826,0 1.606,0 3.144,-1.412 3.07,-3.07 -0.074,-1.663 -1.349,-3.07 -3.07,-3.07 z" fill="#ffffff" />
            </g>
         </g>
         <g id="g6239">
            <g id="g6237">
               <path id="path6235" d="m 1929.555,523.277 c -0.539,0 -1.078,0 -1.617,0 -1.606,0 -3.144,1.412 -3.07,3.07 0.075,1.663 1.349,3.07 3.07,3.07 0.539,0 1.078,0 1.617,0 1.606,0 3.145,-1.412 3.07,-3.07 -0.074,-1.663 -1.348,-3.07 -3.07,-3.07 z" fill="#ffffff" />
            </g>
         </g>
         <g id="g6245">
            <g id="g6243">
               <path id="path6241" d="m 2096.146,422.67 c 3.951,0 3.958,-6.14 0,-6.14 -3.951,-10e-4 -3.957,6.14 0,6.14 z" fill="#ffffff" />
            </g>
         </g>
         <g id="g6251">
            <g id="g6249">
               <path id="path6247" d="m 2272.456,427.719 c -0.533,-0.058 -1.065,-0.117 -1.598,-0.175 -0.732,-0.08 -1.672,0.401 -2.171,0.899 -0.532,0.533 -0.934,1.406 -0.899,2.171 0.036,0.794 0.296,1.618 0.899,2.171 0.636,0.584 1.316,0.805 2.171,0.899 0.533,0.058 1.065,0.117 1.598,0.175 0.732,0.08 1.672,-0.401 2.171,-0.899 0.532,-0.533 0.934,-1.406 0.899,-2.171 -0.035,-0.794 -0.296,-1.618 -0.899,-2.171 -0.636,-0.584 -1.316,-0.805 -2.171,-0.899 z" fill="#ffffff" />
            </g>
         </g>
         <g id="g6257">
            <g id="g6255">
               <path id="path6253" d="m 1914.999,253.173 c -0.297,0 -0.593,0 -0.89,0 -3.951,0 -3.958,6.14 0,6.14 0.297,0 0.593,0 0.89,0 3.951,0.001 3.958,-6.14 0,-6.14 -0.297,0 -0.593,0 -0.89,0 -3.951,0 -3.958,6.14 0,6.14 0.297,0 0.593,0 0.89,0 3.951,0.001 3.958,-6.14 0,-6.14 z" fill="#ffffff" />
            </g>
         </g>
         <g id="g6263">
            <g id="g6261">
               <path id="path6259" d="m 2039.538,227.295 c -0.297,0 -0.593,0 -0.89,0 -3.951,0 -3.958,6.14 0,6.14 0.297,0 0.593,0 0.89,0 3.951,0.001 3.957,-6.14 0,-6.14 -0.297,0 -0.593,0 -0.89,0 -3.951,0 -3.958,6.14 0,6.14 0.297,0 0.593,0 0.89,0 3.951,0.001 3.957,-6.14 0,-6.14 z" fill="#ffffff" />
            </g>
         </g>
         <g id="g6269">
            <g id="g6267">
               <path id="path6265" d="m 1879.97,79.395 c -0.539,-0.539 -1.078,-1.078 -1.617,-1.617 -1.137,-1.137 -3.22,-1.222 -4.342,0 -1.125,1.226 -1.214,3.128 0,4.342 0.539,0.539 1.078,1.078 1.617,1.617 1.137,1.137 3.22,1.222 4.342,0 1.125,-1.226 1.214,-3.129 0,-4.342 z" fill="#ffffff" />
            </g>
         </g>
         <g id="g6275">
            <g id="g6273">
               <path id="path6271" d="m 1939.26,71.697 c 3.951,0 3.958,-6.14 0,-6.14 -3.951,-0.001 -3.958,6.14 0,6.14 z" fill="#ffffff" />
            </g>
         </g>
         <g id="g6281">
            <g id="g6279">
               <path id="path6277" d="m 1816.338,92.723 c 3.951,0 3.958,-6.14 0,-6.14 -3.951,-0.001 -3.957,6.14 0,6.14 z" fill="#ffffff" />
            </g>
         </g>
         <g id="g6287">
            <g id="g6285">
               <path id="path6283" d="m 1853.538,7.001 c 3.951,0 3.958,-6.14 0,-6.14 -3.951,0 -3.957,6.14 0,6.14 z" fill="#ffffff" />
            </g>
         </g>
         <g id="g6293">
            <g id="g6291">
               <path id="path6289" d="m 1929.555,31.591 c -0.539,0 -1.078,0 -1.617,0 -1.606,0 -3.144,1.412 -3.07,3.07 0.075,1.663 1.349,3.07 3.07,3.07 0.539,0 1.078,0 1.617,0 1.606,0 3.145,-1.412 3.07,-3.07 -0.074,-1.663 -1.348,-3.07 -3.07,-3.07 z" fill="#ffffff" />
            </g>
         </g>
         <g id="g6299">
            <g id="g6297">
               <path id="path6295" d="m 2022.81,37.343 c -0.539,0.539 -1.078,1.078 -1.617,1.617 -1.137,1.137 -1.222,3.22 0,4.342 1.226,1.125 3.128,1.214 4.342,0 0.539,-0.539 1.078,-1.078 1.617,-1.617 1.137,-1.137 1.222,-3.22 0,-4.342 -1.225,-1.125 -3.128,-1.214 -4.342,0 z" fill="#ffffff" />
            </g>
         </g>
         <g id="g6305">
            <g id="g6303">
               <path id="path6301" d="m 2060.399,94.505 c 0,-0.539 0,-1.078 0,-1.617 0,-1.606 -1.412,-3.144 -3.07,-3.07 -1.664,0.075 -3.07,1.349 -3.07,3.07 0,0.539 0,1.078 0,1.617 0,1.606 1.412,3.144 3.07,3.07 1.663,-0.075 3.07,-1.349 3.07,-3.07 z" fill="#ffffff" />
            </g>
         </g>
         <g id="g6311">
            <g id="g6309">
               <path id="path6307" d="m 2092.747,143.026 c 0,-0.297 0,-0.593 0,-0.89 0,-3.951 -6.141,-3.958 -6.141,0 0,0.297 0,0.593 0,0.89 0,3.951 6.141,3.958 6.141,0 0,-0.297 0,-0.593 0,-0.89 0,-3.951 -6.141,-3.958 -6.141,0 0,0.297 0,0.593 0,0.89 0,3.951 6.141,3.958 6.141,0 z" fill="#ffffff" />
            </g>
         </g>
         <g id="g6317">
            <g id="g6315">
               <path id="path6313" d="m 2189.955,8.948 c -0.539,0 -1.078,0 -1.617,0 -1.606,0 -3.145,1.412 -3.07,3.07 0.075,1.663 1.349,3.07 3.07,3.07 0.539,0 1.078,0 1.617,0 1.606,0 3.144,-1.412 3.07,-3.07 -0.075,-1.663 -1.349,-3.07 -3.07,-3.07 z" fill="#ffffff" />
            </g>
         </g>
         <g id="g6323">
            <g id="g6321">
               <path id="path6319" d="m 2265.972,5.384 c 3.951,0 3.958,-6.14 0,-6.14 -3.951,0 -3.958,6.14 0,6.14 z" fill="#ffffff" />
            </g>
         </g>
         <g id="g6329">
            <g id="g6327">
               <path id="path6325" d="m 2265.972,120.548 c -0.539,0 -1.078,0 -1.617,0 -1.606,0 -3.144,1.412 -3.07,3.07 0.074,1.663 1.349,3.07 3.07,3.07 0.539,0 1.078,0 1.617,0 1.606,0 3.145,-1.412 3.07,-3.07 -0.074,-1.664 -1.349,-3.07 -3.07,-3.07 z" fill="#ffffff" />
            </g>
         </g>
         <g id="g6335">
            <g id="g6333">
               <path id="path6331" d="m 2490.789,17.035 c -0.297,0 -0.594,0 -0.89,0 -3.951,0 -3.958,6.14 0,6.14 0.297,0 0.594,0 0.89,0 3.951,0 3.957,-6.14 0,-6.14 -0.297,0 -0.594,0 -0.89,0 -3.951,0 -3.958,6.14 0,6.14 0.297,0 0.594,0 0.89,0 3.951,0 3.957,-6.14 0,-6.14 z" fill="#ffffff" />
            </g>
         </g>
         <g id="g6341">
            <g id="g6339">
               <path id="path6337" d="m 2569.876,58.922 c 0,-0.539 0,-1.078 0,-1.617 0,-1.606 -1.412,-3.144 -3.07,-3.07 -1.663,0.075 -3.07,1.349 -3.07,3.07 0,0.539 0,1.078 0,1.617 0,1.606 1.412,3.144 3.07,3.07 1.663,-0.074 3.07,-1.349 3.07,-3.07 z" fill="#ffffff" />
            </g>
         </g>
         <g id="g6347">
            <g id="g6345">
               <path id="path6343" d="m 2642.773,351.549 c -0.052,0.01 -0.104,0.011 -0.156,0.004 0.272,0.037 0.544,0.073 0.816,0.11 -0.023,-0.005 -0.046,-0.011 -0.069,-0.016 0.245,0.103 0.489,0.206 0.733,0.309 -0.043,-0.014 -0.082,-0.036 -0.118,-0.064 0.207,0.16 0.414,0.32 0.621,0.48 -0.036,-0.028 -0.067,-0.061 -0.093,-0.099 0.16,0.207 0.32,0.414 0.48,0.621 -0.027,-0.039 -0.05,-0.081 -0.068,-0.126 0.103,0.244 0.206,0.489 0.31,0.733 -0.026,-0.075 -0.043,-0.143 -0.055,-0.222 0.037,0.272 0.073,0.544 0.11,0.816 -0.01,-0.082 -0.01,-0.156 0,-0.238 -0.036,0.272 -0.073,0.544 -0.11,0.816 0.012,-0.08 0.028,-0.15 0.053,-0.227 -0.103,0.244 -0.206,0.489 -0.31,0.733 0.03,-0.071 0.061,-0.127 0.106,-0.189 -0.16,0.207 -0.32,0.414 -0.48,0.621 0.029,-0.035 0.062,-0.066 0.1,-0.092 -0.207,0.16 -0.414,0.32 -0.622,0.48 0.02,-0.011 0.039,-0.022 0.058,-0.033 -0.244,0.103 -0.489,0.206 -0.733,0.31 0.042,-0.019 0.087,-0.03 0.133,-0.034 -0.272,0.037 -0.544,0.073 -0.816,0.11 0.025,0 0.05,0.001 0.075,0.001 -0.272,-0.037 -0.544,-0.073 -0.816,-0.11 0.027,0.005 0.054,0.009 0.081,0.014 0.833,0.145 1.612,0.132 2.366,-0.309 0.637,-0.373 1.244,-1.103 1.411,-1.835 0.34,-1.492 -0.452,-3.483 -2.145,-3.777 -1.251,-0.217 -2.443,-0.049 -3.387,0.883 -0.696,0.687 -1.111,1.699 -1.108,2.677 0,0.891 0.239,1.699 0.785,2.406 0.654,0.846 1.732,1.497 2.846,1.385 0.834,-0.084 1.558,-0.286 2.171,-0.899 0.532,-0.533 0.934,-1.406 0.899,-2.171 -0.066,-1.523 -1.357,-3.241 -3.068,-3.068 z" fill="#ffffff" />
            </g>
         </g>
         <g id="g6353">
            <g id="g6351">
               <path id="path6349" d="m 2480.837,478.617 c -0.027,-0.087 -0.038,-0.24 -0.084,-0.315 0.237,0.377 0.054,0.677 0.079,0.251 0.022,-0.385 -0.039,0.719 -0.03,0.336 0.01,-0.4 0.379,-0.117 -0.104,0.2 0.029,-0.019 0.165,-0.246 0.168,-0.281 0,0.06 -0.456,0.566 -0.167,0.246 0.335,-0.372 -0.479,0.287 -0.174,0.132 0.31,-0.158 -0.777,0.265 -0.213,0.081 1.524,-0.497 2.672,-2.148 2.145,-3.777 -0.493,-1.522 -2.142,-2.678 -3.777,-2.144 -2.833,0.925 -4.673,3.961 -3.762,6.903 0.474,1.532 2.164,2.666 3.777,2.144 1.54,-0.498 2.651,-2.133 2.142,-3.776 z" fill="#ffffff" />
            </g>
         </g>
         <g id="g6359">
            <g id="g6357">
               <path id="path6355" d="m 2596.799,573.397 c -0.541,-1.077 -1.082,-2.154 -1.624,-3.232 -0.722,-1.438 -2.868,-1.961 -4.2,-1.101 -1.47,0.948 -1.874,2.662 -1.102,4.201 0.541,1.077 1.082,2.154 1.624,3.232 0.722,1.438 2.868,1.961 4.2,1.101 1.47,-0.949 1.874,-2.663 1.102,-4.201 z" fill="#ffffff" />
            </g>
         </g>
         <g id="g6365">
            <g id="g6363">
               <path id="path6361" d="m 2744.554,508.556 c 0,-0.539 0,-1.078 0,-1.617 0,-1.606 -1.412,-3.144 -3.07,-3.07 -1.664,0.075 -3.07,1.349 -3.07,3.07 0,0.539 0,1.078 0,1.617 0,1.606 1.412,3.144 3.07,3.07 1.663,-0.074 3.07,-1.349 3.07,-3.07 z" fill="#ffffff" />
            </g>
         </g>
         <g id="g6371">
            <g id="g6369">
               <path id="path6367" d="m 2746.171,658.973 c 0,-0.539 0,-1.078 0,-1.617 0,-1.606 -1.412,-3.144 -3.07,-3.07 -1.663,0.075 -3.07,1.349 -3.07,3.07 0,0.539 0,1.078 0,1.617 0,1.606 1.412,3.144 3.07,3.07 1.664,-0.074 3.07,-1.349 3.07,-3.07 z" fill="#ffffff" />
            </g>
         </g>
         <g id="g6377">
            <g id="g6375">
               <path id="path6373" d="m 2393.581,709.112 c 0,-0.539 0,-1.078 0,-1.617 0,-1.606 -1.412,-3.144 -3.07,-3.07 -1.663,0.074 -3.07,1.349 -3.07,3.07 0,0.539 0,1.078 0,1.617 0,1.606 1.412,3.144 3.07,3.07 1.663,-0.074 3.07,-1.349 3.07,-3.07 z" fill="#ffffff" />
            </g>
         </g>
         <g id="g6383">
            <g id="g6381">
               <path id="path6379" d="m 1905.13,730.138 c 0,-0.539 0,-1.078 0,-1.617 0,-1.606 -1.412,-3.144 -3.07,-3.07 -1.663,0.075 -3.07,1.349 -3.07,3.07 0,0.539 0,1.078 0,1.617 0,1.606 1.412,3.144 3.07,3.07 1.663,-0.074 3.07,-1.349 3.07,-3.07 z" fill="#ffffff" />
            </g>
         </g>
         <g id="g6389">
            <g id="g6387">
               <path id="path6385" d="m 1591.521,632.93 c 3.951,0 3.958,-6.14 0,-6.14 -3.951,0 -3.957,6.14 0,6.14 z" fill="#ffffff" />
            </g>
         </g>
         <g id="g6395">
            <g id="g6393">
               <path id="path6391" d="m 1392.418,587.808 c 0,-0.539 0,-1.078 0,-1.617 0,-1.606 -1.412,-3.144 -3.07,-3.07 -1.663,0.074 -3.07,1.349 -3.07,3.07 0,0.539 0,1.078 0,1.617 0,1.606 1.412,3.144 3.07,3.07 1.664,-0.074 3.07,-1.349 3.07,-3.07 z" fill="#ffffff" />
            </g>
         </g>
         <g id="g6401">
            <g id="g6399">
               <path id="path6397" d="m 1061.019,642.634 c 3.951,0 3.958,-6.14 0,-6.14 -3.951,0 -3.958,6.14 0,6.14 z" fill="#ffffff" />
            </g>
         </g>
         <g id="g6407">
            <g id="g6405">
               <path id="path6403" d="m 955.335,467.568 c -0.539,0.539 -1.078,1.078 -1.617,1.617 -1.137,1.137 -1.222,3.22 0,4.342 1.226,1.125 3.128,1.214 4.342,0 0.539,-0.539 1.078,-1.078 1.617,-1.617 1.137,-1.137 1.222,-3.22 0,-4.342 -1.226,-1.125 -3.129,-1.214 -4.342,0 z" fill="#ffffff" />
            </g>
         </g>
         <g id="g6413">
            <g id="g6411">
               <path id="path6409" d="m 975.297,371.243 c -0.539,0 -1.078,0 -1.617,0 -1.606,0 -3.144,1.412 -3.07,3.07 0.075,1.663 1.349,3.07 3.07,3.07 0.539,0 1.078,0 1.617,0 1.606,0 3.144,-1.412 3.07,-3.07 -0.074,-1.664 -1.349,-3.07 -3.07,-3.07 z" fill="#ffffff" />
            </g>
         </g>
         <g id="g6419">
            <g id="g6417">
               <path id="path6415" d="m 1200.114,304.601 c 3.951,0 3.958,-6.14 0,-6.14 -3.951,-0.001 -3.958,6.14 0,6.14 z" fill="#ffffff" />
            </g>
         </g>
         <g id="g6425">
            <g id="g6423">
               <path id="path6421" d="m 958.57,181.29 c -0.539,0.539 -1.078,1.078 -1.617,1.617 -1.137,1.137 -1.222,3.22 0,4.342 1.226,1.125 3.128,1.214 4.342,0 0.539,-0.539 1.078,-1.078 1.617,-1.617 1.137,-1.137 1.222,-3.22 0,-4.342 -1.226,-1.125 -3.129,-1.213 -4.342,0 z" fill="#ffffff" />
            </g>
         </g>
         <g id="g6431">
            <g id="g6429">
               <path id="path6427" d="m 951.036,93.052 c -0.297,0 -0.593,0 -0.89,0 -3.951,0 -3.958,6.14 0,6.14 0.297,0 0.593,0 0.89,0 3.951,0 3.958,-6.14 0,-6.14 -0.297,0 -0.593,0 -0.89,0 -3.951,0 -3.958,6.14 0,6.14 0.297,0 0.593,0 0.89,0 3.951,0 3.958,-6.14 0,-6.14 z" fill="#ffffff" />
            </g>
         </g>
         <g id="g6437">
            <g id="g6435">
               <path id="path6433" d="m 684.167,120.548 c -0.539,0 -1.078,0 -1.617,0 -1.606,0 -3.144,1.412 -3.07,3.07 0.075,1.663 1.349,3.07 3.07,3.07 0.539,0 1.078,0 1.617,0 1.606,0 3.144,-1.412 3.07,-3.07 -0.074,-1.664 -1.348,-3.07 -3.07,-3.07 z" fill="#ffffff" />
            </g>
         </g>
         <g id="g6443">
            <g id="g6441">
               <path id="path6439" d="m 723.149,44.366 c 0,0.297 0,0.593 0,0.89 0,3.951 6.14,3.958 6.14,0 0,-0.297 0,-0.593 0,-0.89 10e-4,-3.951 -6.14,-3.958 -6.14,0 0,0.297 0,0.593 0,0.89 0,3.951 6.14,3.958 6.14,0 0,-0.297 0,-0.593 0,-0.89 10e-4,-3.951 -6.14,-3.958 -6.14,0 z" fill="#ffffff" />
            </g>
         </g>
         <g id="g6449">
            <g id="g6447">
               <path id="path6445" d="m 682.253,390.501 c -0.058,-0.533 -0.117,-1.065 -0.175,-1.598 -0.092,-0.838 -0.281,-1.553 -0.899,-2.171 -0.532,-0.533 -1.406,-0.934 -2.171,-0.899 -0.794,0.036 -1.618,0.296 -2.171,0.899 -0.516,0.562 -0.986,1.378 -0.899,2.171 0.058,0.533 0.117,1.065 0.175,1.598 0.092,0.838 0.281,1.553 0.899,2.171 0.533,0.533 1.406,0.934 2.171,0.899 0.794,-0.036 1.618,-0.296 2.171,-0.899 0.516,-0.562 0.986,-1.378 0.899,-2.171 z" fill="#ffffff" />
            </g>
         </g>
         <g id="g6455">
            <g id="g6453">
               <path id="path6451" d="m 478.759,37.732 c 1.078,0 2.157,0 3.235,0 1.606,0 3.144,-1.412 3.07,-3.07 -0.075,-1.663 -1.349,-3.07 -3.07,-3.07 -1.078,0 -2.157,0 -3.235,0 -1.606,0 -3.144,1.412 -3.07,3.07 0.074,1.663 1.349,3.07 3.07,3.07 z" fill="#ffffff" />
            </g>
         </g>
         <g id="g6461">
            <g id="g6459">
               <path id="path6457" d="m 226.447,91.105 c 0.539,0 1.078,0 1.617,0 1.606,0 3.144,-1.412 3.07,-3.07 -0.074,-1.663 -1.349,-3.07 -3.07,-3.07 -0.539,0 -1.078,0 -1.617,0 -1.606,0 -3.144,1.412 -3.07,3.07 0.074,1.664 1.349,3.07 3.07,3.07 z" fill="#ffffff" />
            </g>
         </g>
         <g id="g6467">
            <g id="g6465">
               <path id="path6463" d="m 271.726,274.109 c -0.386,0.015 0.539,0.1 0.516,0.095 -0.357,-0.088 0.512,0.238 0.475,0.22 -0.359,-0.18 0.591,0.531 0.374,0.295 -0.205,-0.223 0.479,0.667 0.312,0.408 -0.267,-0.414 0.257,0.787 0.123,0.296 -0.133,-0.486 0.034,0.906 0.038,0.27 0,-0.016 0.01,-0.202 0.009,-0.202 0.015,0.003 -0.139,0.871 -0.061,0.52 0.124,-0.561 -0.29,0.548 -0.136,0.287 0.185,-0.314 -0.348,0.43 -0.32,0.4 0.274,-0.296 -0.595,0.41 -0.381,0.285 0.246,-0.144 -0.764,0.288 -0.483,0.208 0.236,-0.068 -0.915,0.067 -0.471,0.082 1.607,0.056 3.143,-1.452 3.07,-3.07 -0.077,-1.712 -1.349,-3.01 -3.07,-3.07 -2.519,-0.088 -4.301,2.183 -4.296,4.562 0.005,2.373 1.779,4.655 4.302,4.557 1.603,-0.062 3.146,-1.368 3.07,-3.07 -0.073,-1.612 -1.352,-3.139 -3.071,-3.073 z" fill="#ffffff" />
            </g>
         </g>
         <g id="g6473">
            <g id="g6471">
               <path id="path6469" d="m 54.839,434.156 c 0,-0.539 0,-1.078 0,-1.617 0,-1.606 -1.412,-3.144 -3.07,-3.07 -1.663,0.074 -3.07,1.349 -3.07,3.07 0,0.539 0,1.078 0,1.617 0,1.606 1.412,3.144 3.07,3.07 1.663,-0.074 3.07,-1.349 3.07,-3.07 z" fill="#ffffff" />
            </g>
         </g>
         <g id="g6479">
            <g id="g6477">
               <path id="path6475" d="m 162.305,566.228 c -0.539,-0.539 -1.078,-1.078 -1.617,-1.617 -1.137,-1.137 -3.22,-1.222 -4.342,0 -1.125,1.226 -1.214,3.128 0,4.342 0.539,0.539 1.078,1.078 1.617,1.617 1.137,1.137 3.22,1.222 4.342,0 1.125,-1.225 1.213,-3.128 0,-4.342 z" fill="#ffffff" />
            </g>
         </g>
         <g id="g6485">
            <g id="g6483">
               <path id="path6481" d="m 93.06,731.597 c 0.547,-1.074 1.095,-2.148 1.642,-3.222 0.728,-1.43 0.422,-3.396 -1.101,-4.201 -1.401,-0.74 -3.422,-0.426 -4.201,1.101 -0.547,1.074 -1.095,2.148 -1.642,3.222 -0.728,1.43 -0.422,3.396 1.101,4.201 1.401,0.741 3.423,0.427 4.201,-1.101 z" fill="#ffffff" />
            </g>
         </g>
         <g id="g6491">
            <g id="g6489">
               <path id="path6487" d="m 294.931,868.68 c -0.539,-0.539 -1.078,-1.078 -1.617,-1.617 -1.137,-1.137 -3.22,-1.222 -4.342,0 -1.125,1.226 -1.214,3.128 0,4.342 0.539,0.539 1.078,1.078 1.617,1.617 1.137,1.137 3.22,1.222 4.342,0 1.125,-1.226 1.213,-3.129 0,-4.342 z" fill="#ffffff" />
            </g>
         </g>
         <g id="g6497">
            <g id="g6495">
               <path id="path6493" d="m 517.412,613.686 c 0,-0.539 0,-1.078 0,-1.617 0,-1.606 -1.412,-3.144 -3.07,-3.07 -1.663,0.075 -3.07,1.349 -3.07,3.07 0,0.539 0,1.078 0,1.617 0,1.606 1.412,3.144 3.07,3.07 1.663,-0.074 3.07,-1.349 3.07,-3.07 z" fill="#ffffff" />
            </g>
         </g>
         <g id="g6503">
            <g id="g6501">
               <path id="path6499" d="m 663.141,636.165 c 3.951,0 3.958,-6.14 0,-6.14 -3.951,-10e-4 -3.957,6.14 0,6.14 z" fill="#ffffff" />
            </g>
         </g>
         <g id="g6509">
            <g id="g6507">
               <path id="path6505" d="m 1230.26,100.777 c -1.312,0 -2.625,0 -3.937,0 -3.951,0 -3.958,6.14 0,6.14 1.312,0 2.625,0 3.937,0 3.951,0 3.957,-6.14 0,-6.14 -1.312,0 -2.625,0 -3.937,0 -3.951,0 -3.958,6.14 0,6.14 1.312,0 2.625,0 3.937,0 3.951,0 3.957,-6.14 0,-6.14 z" fill="#ffffff" />
            </g>
         </g>
         <g id="g6515">
            <g id="g6513">
               <path id="path6511" d="m 1481.312,65.696 c 0,-2.12 0,-4.239 0,-6.359 0,-3.951 -6.14,-3.958 -6.14,0 0,2.119 0,4.239 0,6.359 -10e-4,3.951 6.14,3.957 6.14,0 z" fill="#ffffff" />
            </g>
         </g>
         <g id="g6521">
            <g id="g6519">
               <path id="path6517" d="m 1339.247,189.363 c -2.078,-0.294 -4.156,-0.587 -6.234,-0.881 -1.64,-0.232 -3.298,0.401 -3.777,2.144 -0.395,1.438 0.492,3.543 2.144,3.777 2.078,0.293 4.156,0.587 6.234,0.88 1.64,0.232 3.298,-0.401 3.777,-2.144 0.396,-1.438 -0.491,-3.543 -2.144,-3.776 z" fill="#ffffff" />
            </g>
         </g>
         <g id="g6527">
            <g id="g6525">
               <path id="path6523" d="m 1588.507,74.225 c 2.12,-2.119 4.239,-4.239 6.359,-6.359 2.798,-2.798 -1.543,-7.141 -4.342,-4.342 -2.12,2.119 -4.239,4.239 -6.359,6.359 -2.798,2.798 1.543,7.141 4.342,4.342 z" fill="#ffffff" />
            </g>
         </g>
      </g>
      <g id="g6543">
         <g id="g6535">
            <path id="path6531" d="m 2278.681,669.782 c 17.341,-24.772 50.528,-75.421 50.528,-100.234 0,-33.586 -27.227,-60.814 -60.813,-60.814 -33.587,0 -60.814,27.227 -60.814,60.814 0,24.813 33.187,75.462 50.528,100.234 z" fill="#631f3d" />
            <rect id="rect6533" height="14.359" width="22.065001" fill="#631f3d" y="681.96198" x="2256.9661" />
         </g>
         <g id="g6541">
            <path id="path6537" d="m 2091.149,783.952 c 12.051,-17.215 35.115,-52.414 35.115,-69.658 0,-23.341 -18.922,-42.263 -42.263,-42.263 -23.341,0 -42.263,18.922 -42.263,42.263 0,17.244 23.064,52.443 35.115,69.658 z" fill="#812e52" />
            <rect id="rect6539" height="9.9790001" width="15.334" fill="#812e52" y="792.41602" x="2076.0581" />
         </g>
      </g>
      <g id="g6577">
         <g id="g6547">
            <path id="path6545" d="m 1106.943,737.474 c 7.239,-6.171 16.166,-12.765 25.355,-10.303 5.082,1.362 12.325,4.019 17.286,10.312 0,0 13.422,-10 20.73,-10.906 7.308,-0.906 15.096,1.054 20.569,5.98 -4.964,-2.723 -11.137,-1.604 -16.462,0.32 -9.856,3.561 -18.779,9.668 -25.668,17.566 -3.798,-6.463 -8.132,-13.387 -15.177,-15.949 -8.854,-3.217 -18.454,-1.694 -26.633,2.98" fill="#812e52" />
         </g>
         <g id="g6551">
            <path id="path6549" d="m 1156.542,773.586 c 7.239,-6.171 16.166,-12.765 25.355,-10.303 5.082,1.362 12.325,4.019 17.286,10.312 0,0 13.422,-10 20.73,-10.906 7.308,-0.906 15.096,1.054 20.569,5.98 -4.964,-2.723 -11.137,-1.604 -16.462,0.32 -9.856,3.561 -18.779,9.668 -25.668,17.566 -3.798,-6.463 -8.132,-13.387 -15.177,-15.949 -8.854,-3.218 -18.454,-1.695 -26.633,2.98" fill="#812e52" />
         </g>
         <g id="g6555">
            <path id="path6553" d="m 1396.636,875.92 c 3.176,-2.707 7.092,-5.6 11.123,-4.52 2.23,0.597 5.407,1.763 7.583,4.524 0,0 5.888,-4.387 9.094,-4.784 3.206,-0.397 6.622,0.463 9.023,2.624 -2.178,-1.195 -4.886,-0.703 -7.222,0.141 -4.324,1.562 -8.239,4.242 -11.26,7.706 -1.666,-2.835 -3.568,-5.873 -6.658,-6.997 -3.883,-1.413 -8.095,-0.744 -11.683,1.306" fill="#812e52" />
         </g>
         <g id="g6559">
            <path id="path6557" d="m 1014.95,830.86 c -3.336,-24.556 21.695,-26.905 26.655,-20.612 0,0 16.318,-15.555 33,16.475 -18.017,-13.079 -26.943,-11.411 -33.831,-3.514 -3.798,-6.462 -13.813,-10.499 -25.824,7.651" fill="#812e52" />
         </g>
         <g id="g6563">
            <path id="path6561" d="m 1325.427,761.781 c -3.336,-24.556 21.869,-23.255 26.829,-16.962 0,0 16.144,-19.204 32.826,12.825 -18.017,-13.079 -26.943,-11.411 -33.831,-3.514 -3.798,-6.463 -13.812,-10.5 -25.824,7.651" fill="#812e52" />
         </g>
         <g id="g6567">
            <path id="path6565" d="m 1269.557,845.146 c -0.409,-15.471 15.151,-12.957 17.804,-8.715 0,0 11.322,-10.83 19.511,10.184 -10.3,-9.339 -15.954,-8.908 -20.765,-4.471 -1.92,-4.269 -7.865,-7.453 -16.55,3.002" fill="#812e52" />
         </g>
         <g id="g6571">
            <path id="path6569" d="m 953.742,724.463 c 7.486,-1.524 16.322,-2.689 21.823,2.612 3.043,2.932 7.1,7.614 8.141,13.965 0,0 13.319,-1.812 18.807,0.391 5.488,2.203 10.2,6.607 12.132,12.196 -2.43,-3.843 -7.204,-5.455 -11.694,-6.172 -8.311,-1.327 -16.955,-0.503 -24.866,2.37 -0.158,-6.018 -0.513,-12.568 -4.469,-17.107 -4.97,-5.702 -12.309,-8.362 -19.874,-8.255" fill="#812e52" />
         </g>
         <g id="g6575">
            <path id="path6573" d="m 1401.565,805.125 c 3.481,-3.822 7.844,-7.987 12.966,-7.288 2.833,0.387 6.92,1.324 10.024,4.378 0,0 6.553,-6.309 10.431,-7.297 3.878,-0.988 8.211,-0.463 11.499,1.818 -2.862,-1.129 -6.114,-0.103 -8.854,1.298 -5.07,2.594 -9.464,6.496 -12.638,11.225 -2.49,-3.225 -5.299,-6.662 -9.273,-7.561 -4.992,-1.13 -10.064,0.348 -14.155,3.427" fill="#812e52" />
         </g>
      </g>
      <g id="g6581">
         <path id="path6579" d="m 2304.172,854.436 c -86.218,31.25 -166.127,113.839 -225.007,120.536 -58.881,6.696 -92.526,-78.125 -180.847,-49.107 -88.321,29.018 -342.768,180.803 -485.764,187.5 -142.996,6.697 -584.599,-290.178 -681.331,-312.5 -80.531,-18.583 -314.261,71.521 -390.299,102.227 l -0.014,-0.587 c -35.242,13.707 -71.025,26.034 -107.24,36.943 -37.727,11.365 -78.787,21.115 -115.882,7.849 C 72.627,931.146 44.495,884.832 0.724,865.254 v 531.593 H 2850 v -283.37 c 0,-10e-4 -459.61,-290.291 -545.828,-259.041 z" fill="#812e52" />
      </g>
      <g id="g6585">
         <path id="path6583" d="m 143.816,953.036 c -8.825,-0.881 -17.531,-2.7 -26.027,-5.739 C 72.628,931.146 44.496,884.832 0.725,865.254 v 32.495 c 43.772,19.578 71.903,65.892 117.064,82.043 8.497,3.039 155.407,13.051 164.232,13.932 z" fill="#b34070" />
      </g>
      <g id="g6589">
         <path id="path6587" d="m 1898.318,925.865 c -88.321,29.018 -342.768,180.803 -485.764,187.5 -142.38,6.668 -580.79,-287.617 -680.048,-312.184 0,0 558.574,396.739 700.954,390.071 142.995,-6.696 339.449,-164.025 419.367,-211.52 23.119,-13.739 85.745,-59.816 85.745,-59.816 -12.13,-0.577 -25.418,1.074 -40.254,5.949 z" fill="#b34070" />
      </g>
      <g id="g6593">
         <path id="path6591" d="m 2304.172,854.436 c -81.828,29.659 -157.971,105.553 -215.85,118.93 0,0 94.248,-20.879 167.336,-68.141 17.9,-11.575 57.363,-52.755 57.363,-52.755 -3.274,0.374 -6.237,1.019 -8.849,1.966 z" fill="#b34070" />
      </g>
      <g id="g6597">
         <path id="path6595" d="m 2493.26,1166.233 c -13.86,-2.397 -28.014,1.286 -41.367,5.706 -107.211,35.488 -203.427,121.207 -315.877,110.783 -112.946,-10.469 -213.233,-118.035 -322.52,-87.663 -40.359,11.216 -77.384,41.065 -118.955,35.92 -14.056,-1.74 -27.265,-7.469 -40.938,-11.163 -68.658,-18.549 -139.228,15.018 -204.174,44.002 -64.945,28.984 -142.095,53.789 -204.659,19.969 -18.812,-10.169 -36.252,-25.595 -57.614,-26.583 -23.371,-1.08 -47.428,15.624 -68.802,6.109 -10.825,-4.819 -17.837,-15.323 -24.018,-25.433 -22.765,-37.234 -42.83,-76.9 -73.603,-107.845 -30.773,-30.945 -75.674,-52.23 -117.995,-41.579 -26.725,6.726 -52.38,25.624 -79.155,19.102 -17.409,-4.241 -30.366,-18.395 -42.202,-31.847 -32.395,-36.82 -64.79,-73.641 -97.185,-110.461 -8.488,-9.647 -17.462,-19.641 -29.46,-24.24 -14.506,-5.56 -30.78,-2.251 -45.74,1.938 -81.451,22.81 -153.92,69.197 -230.565,104.975 -76.645,35.778 -163.76,61.334 -245.337,38.979 C 77.03,1071.539 41.141,1031.476 0.725,989.693 L 0,1167.303 c 0,73.096 29.359,127.844 80.445,166.388 38.216,28.833 90.739,25.951 138.519,22.976 276.286,-17.204 553.261,6.532 830.007,12.982 201.798,4.703 403.685,0.21 605.487,-4.283 226.455,-5.042 452.909,-10.084 679.364,-15.126 43.441,-0.967 461.271,11.472 501.406,-5.18 40.135,-16.652 -149.13,-73.148 -188.875,-113.646 -21.418,-21.823 -122.962,-59.97 -153.093,-65.181 z" fill="#75294a" />
      </g>
      <g id="g6601">
         <path id="path6599" d="m -2.097,1471.124 c 24.995,-49.224 70.367,-84.931 117.633,-113.455 206.368,-124.541 466.963,-136.581 699.722,-73.962 126.669,34.077 249.827,90.409 345.078,180.596" fill="#672140" />
      </g>
      <g id="g6605">
         <path id="path6603" d="m 941.68,1328.447 c 163.311,63.955 346.739,32.617 518.411,-3.292 171.672,-35.909 351.576,-75.337 519.801,-25.727 49.433,14.578 96.916,36.687 147.851,44.542 77.853,12.006 156.321,-10.156 234.482,-19.957 80.286,-10.068 162.204,-7.005 241.514,9.029 69.173,13.985 142.146,42.442 176.856,103.889 3.806,6.738 7.146,14.781 4.388,22.011 -3.213,8.427 -13.054,11.878 -21.749,14.272 -409.967,112.878 -841.676,118.869 -1266.387,98.019 -144.793,-7.108 -289.938,-17.31 -432.034,-46.018 -37.43,-7.562 -75.962,-17.037 -105.858,-40.795 -29.896,-23.757 -48.665,-65.683 -34.475,-101.135" fill="#672140" />
      </g>
      <rect x="0" id="rect6607" height="403.15302" width="2850" fill="#fa798d" y="1396.847" />
      <g id="g6647" opacity="0.75">
         <g id="g6611" opacity="0.75">
            <path id="path6609" d="m 1240.477,1622.405 c -57.635,21.378 -117.22,37.496 -177.771,48.101 -13.122,2.298 -16.754,19.296 -5.745,26.796 10.588,7.213 23.381,11.91 35.953,14.697 22.69,5.031 46.421,5.552 68.373,13.185 9.727,3.382 20.249,9.917 20.975,20.189 -73.898,28.477 -154.517,33.339 -230.776,54.627 l 811.849,-1.037 c -3.249,-7.204 -10.919,-13.69 -18.333,-17.497 -71.925,-36.929 -165.102,-10.26 -235.166,-50.61 40.917,-10.985 81.833,-21.97 122.749,-32.956 9.115,-2.447 20.169,-7.241 20.269,-16.678 0.105,-9.999 -12.042,-14.781 -21.845,-16.753 -66.899,-13.462 -134.485,-23.51 -202.406,-30.094 43.873,-8.384 87.745,-16.767 131.617,-25.151 8.935,-1.707 20.437,-7.096 18.248,-15.925 -1.683,-6.791 -10.285,-8.64 -17.248,-9.322 -46.847,-4.585 -93.083,-15.376 -137.119,-32.003 16.906,-16.098 46.53,-15.47 66.739,-24.717 9.189,-4.204 6.24,-18 -3.862,-18.219 -34.831,-0.756 -69.661,-1.512 -104.492,-2.268 -7.103,-0.154 -16.738,-2.813 -15.33,-10.408 0.586,-3.159 2.975,-5.684 6.004,-6.753 24.005,-8.468 48.01,-16.935 72.015,-25.403 3.764,-1.328 6.367,-4.984 6.002,-8.958 -0.424,-4.612 -4.372,-5.856 -7.897,-6.807 -15.379,-4.146 -30.758,-8.291 -46.138,-12.437 0.217,-6.506 5.898,-11.238 10.128,-16.186 5.2,-6.083 8.177,-17.135 -2.677,-19.577 -1.369,-0.308 -2.785,-0.398 -4.187,-0.349 -24.727,0.861 -25.013,-0.382 -17.485,-3.045 h -63.843 c -2.729,2.695 -22.978,2.164 -23.554,4.977 -1.123,5.487 13.554,14.777 7.873,16.231 -12.287,3.145 -27.528,6.387 -33.732,9.333 -2.463,1.169 -5.066,2.463 -6.468,4.802 -6.061,10.116 15.784,17.508 15.257,29.289 -0.357,7.984 -10.313,11.188 -18.228,12.294 -10.805,1.511 -21.61,3.021 -32.416,4.532 -11.888,1.662 -27.433,7.39 -23.145,20.959 2.607,8.248 11.072,12.94 19.639,11.746 11.24,-1.566 33.37,7.255 26.803,20.502 -1.301,2.624 -3.51,4.703 -6.136,6.002 -21.07,10.426 -44.086,16.895 -67.5,18.992 -11.305,1.012 -26.772,5.542 -25.036,16.758 1.565,10.112 15.364,11.321 25.596,11.256 24.374,-0.154 48.745,7.52 68.601,21.667 1.76,1.254 3.082,3.087 3.56,5.195 1.348,5.917 -4.67,9.152 -9.715,11.023 z" fill="#ffffff" />
         </g>
         <g id="g6645">
            <g id="g6615" opacity="0.75">
               <path id="path6613" d="m 1477.696,1483.916 c -13.467,-1.287 -27.036,-0.339 -40.532,0.609 -0.038,0 -0.077,0 -0.115,0 -3.787,0.2 -3.757,5.865 0.026,6.124 1.792,0.123 3.593,0.173 5.382,0.206 11.954,0.221 24.129,-0.259 35.587,-3.468 1.891,-0.53 1.674,-3.281 -0.282,-3.469 -0.021,0 -0.044,-0.01 -0.066,-0.01 z" fill="#ffffff" />
            </g>
            <g id="g6619" opacity="0.75">
               <path id="path6617" d="m 1443.144,1424.039 c -0.117,-0.329 -0.507,-0.456 -0.847,-0.536 -7.948,-1.868 -13.821,-1.926 -21.671,-0.197 -3.142,0.604 -6.487,1.6 -7.259,2.996 -0.155,0.28 -0.271,0.639 -0.097,0.908 0.158,0.243 0.482,0.302 0.77,0.339 8.342,1.063 17.026,2.095 24.991,-0.602 1.31,-0.443 2.611,-1 3.654,-1.907 0.294,-0.258 0.589,-0.633 0.459,-1.001 z" fill="#ffffff" />
            </g>
            <g id="g6623" opacity="0.75">
               <path id="path6621" d="m 1625.968,1514.587 c -2.831,-1.56 -6.79,-3.785 -10.021,-3.869 -15.41,-0.82 -31.009,2.177 -45.017,8.651 -0.683,0.316 -1.468,0.801 -1.45,1.553 0.02,0.829 0.979,1.256 1.778,1.477 12.589,3.484 25.744,4.913 38.786,4.212 5.983,-0.321 12.313,-1.242 16.902,-5.095 1.004,-0.843 1.96,-1.951 1.956,-3.261 -0.01,-1.645 -1.494,-2.874 -2.934,-3.668 z" fill="#ffffff" />
            </g>
            <g id="g6627" opacity="0.75">
               <path id="path6625" d="m 1700.922,1645.295 c -0.254,-1.259 -1.34,-2.163 -2.41,-2.873 -5.987,-3.972 -13.365,-5.122 -20.506,-5.91 -22.418,-2.476 -57.245,-2.589 -79.634,0.137 h 0.245 c -1.004,0.102 -2.008,0.203 -3.007,0.342 -1.056,0.147 -2.171,0.343 -2.971,1.049 -1.577,1.392 -1.061,4.151 0.49,5.572 1.552,1.421 3.741,1.854 5.814,2.213 31.489,5.449 63.672,6.875 95.52,4.233 3.031,-0.251 7.061,-1.777 6.459,-4.758 z" fill="#ffffff" />
            </g>
            <g id="g6631" opacity="0.75">
               <path id="path6629" d="m 1240.19,1436.713 c -1.999,-1.991 -2.712,-2.337 -4.412,-2.964 -9.599,-2.08 -19.608,-2.252 -29.272,-0.503 -1.859,0.336 -3.921,0.894 -4.858,2.534 -1.012,1.773 -0.181,4.151 1.37,5.48 1.551,1.329 3.628,1.838 5.639,2.197 10.035,1.794 20.546,0.848 30.099,-2.709 1.083,-0.403 2.333,-1.082 2.365,-2.237 0.019,-0.693 -0.438,-1.308 -0.931,-1.798 z" fill="#ffffff" />
            </g>
            <g id="g6635" opacity="0.75">
               <path id="path6633" d="m 1125.235,1571.102 v 0 c 0,0 0,0 -0.01,-10e-4 -0.112,-0.016 -0.224,-0.031 -0.336,-0.028 -22.671,-1.941 -44.499,-3.517 -66.761,1.231 -1.662,0.354 -3.471,0.824 -4.457,2.208 -1.386,1.945 -0.357,4.848 1.558,6.275 1.916,1.427 4.411,1.754 6.787,1.992 19.57,1.959 39.429,1.01 58.723,-2.807 2.777,-0.549 5.92,-1.447 7.104,-4.018 0.906,-1.967 -0.819,-4.586 -2.612,-4.852 z" fill="#ffffff" />
            </g>
            <g id="g6639" opacity="0.75">
               <path id="path6637" d="m 1126.954,1631.024 c -0.468,-0.707 -1.363,-0.978 -2.192,-1.16 -4.54,-0.998 -7.288,-0.405 -12.245,-0.521 l 0.736,0.031 c -5.59,-0.272 -11.214,0.182 -16.688,1.348 -2.226,0.474 -4.777,1.387 -5.412,3.572 -0.946,3.254 3.072,5.672 6.4,6.313 9.336,1.797 19.339,-0.154 27.315,-5.327 1.482,-0.961 3.061,-2.783 2.086,-4.256 z" fill="#ffffff" />
            </g>
            <g id="g6643" opacity="0.75">
               <path id="path6641" d="m 962.495,1749.463 c -6.975,0.813 -14.645,2.009 -18.991,7.662 -0.546,0.71 -0.941,1.558 -0.941,2.454 10e-4,2.55 2.749,3.459 5.022,3.804 11.879,1.806 24,0.477 35.886,-1.284 27.953,-4.14 55.553,-10.656 82.405,-19.456 0.572,-0.187 1.01,-0.653 1.162,-1.235 v 0 c 0.31,-1.179 -0.636,-2.31 -1.851,-2.207 -28.427,2.405 -75.498,7.092 -102.692,10.262 z" fill="#ffffff" />
            </g>
         </g>
      </g>
      <g id="g6723">

         <line id="line6649" y2="1466.876" x2="824.203" y1="1466.876" x1="739.46698" stroke-miterlimit="10" stroke-linecap="round" stroke-width="4" stroke="#ffffff" fill="none" opacity="0.42" />

         <line id="line6651" y2="1466.876" x2="1258.531" y1="1466.876" x1="937.63898" stroke-miterlimit="10" stroke-linecap="round" stroke-width="4" stroke="#ffffff" fill="none" opacity="0.42" />

         <line id="line6653" y2="1466.876" x2="1517.3361" y1="1466.876" x1="1404.255" stroke-miterlimit="10" stroke-linecap="round" stroke-width="4" stroke="#ffffff" fill="none" opacity="0.42" />

         <line id="line6655" y2="1466.876" x2="1882.895" y1="1466.876" x1="1686.673" stroke-miterlimit="10" stroke-linecap="round" stroke-width="4" stroke="#ffffff" fill="none" opacity="0.42" />

         <line id="line6657" y2="1466.876" x2="2217.509" y1="1466.876" x1="2094.0811" stroke-miterlimit="10" stroke-linecap="round" stroke-width="4" stroke="#ffffff" fill="none" opacity="0.42" />

         <line id="line6659" y2="1466.876" x2="2336.259" y1="1466.876" x1="2297.6721" stroke-miterlimit="10" stroke-linecap="round" stroke-width="4" stroke="#ffffff" fill="none" opacity="0.42" />

         <line id="line6661" y2="1466.876" x2="412.535" y1="1466.876" x1="373.948" stroke-miterlimit="10" stroke-linecap="round" stroke-width="4" stroke="#ffffff" fill="none" opacity="0.42" />

         <line id="line6663" y2="1466.876" x2="638.79199" y1="1466.876" x1="500.17001" stroke-miterlimit="10" stroke-linecap="round" stroke-width="4" stroke="#ffffff" fill="none" opacity="0.42" />

         <line id="line6665" y2="1504.745" x2="722.23297" y1="1504.745" x1="595.09198" stroke-miterlimit="10" stroke-linecap="round" stroke-width="4" stroke="#ffffff" fill="none" opacity="0.42" />

         <line id="line6667" y2="1504.745" x2="1009.662" y1="1504.745" x1="980.00702" stroke-miterlimit="10" stroke-linecap="round" stroke-width="4" stroke="#ffffff" fill="none" opacity="0.42" />

         <line id="line6669" y2="1504.745" x2="1331.6021" y1="1504.745" x1="1247.619" stroke-miterlimit="10" stroke-linecap="round" stroke-width="4" stroke="#ffffff" fill="none" opacity="0.42" />

         <line id="line6671" y2="1757.33" x2="1101.476" y1="1757.33" x1="1071.822" stroke-miterlimit="10" stroke-linecap="round" stroke-width="4" stroke="#ffffff" fill="none" opacity="0.42" />

         <line id="line6673" y2="1757.33" x2="1423.417" y1="1757.33" x1="1339.434" stroke-miterlimit="10" stroke-linecap="round" stroke-width="4" stroke="#ffffff" fill="none" opacity="0.42" />

         <line id="line6675" y2="1504.745" x2="1535.132" y1="1504.745" x1="1499.541" stroke-miterlimit="10" stroke-linecap="round" stroke-width="4" stroke="#ffffff" fill="none" opacity="0.42" />

         <line id="line6677" y2="1504.745" x2="1977.9139" y1="1504.745" x1="1837.2469" stroke-miterlimit="10" stroke-linecap="round" stroke-width="4" stroke="#ffffff" fill="none" opacity="0.42" />

         <line id="line6679" y2="1504.745" x2="2190.429" y1="1504.745" x1="2155.7639" stroke-miterlimit="10" stroke-linecap="round" stroke-width="4" stroke="#ffffff" fill="none" opacity="0.42" />

         <line id="line6681" y2="1542.613" x2="739.46698" y1="1542.613" x1="710.70001" stroke-miterlimit="10" stroke-linecap="round" stroke-width="4" stroke="#ffffff" fill="none" opacity="0.42" />

         <line id="line6683" y2="1542.613" x2="890.25403" y1="1542.613" x1="796.448" stroke-miterlimit="10" stroke-linecap="round" stroke-width="4" stroke="#ffffff" fill="none" opacity="0.42" />

         <line id="line6685" y2="1542.613" x2="1142.62" y1="1542.613" x1="1103.266" stroke-miterlimit="10" stroke-linecap="round" stroke-width="4" stroke="#ffffff" fill="none" opacity="0.42" />

         <line id="line6687" y2="1542.613" x2="1590.89" y1="1542.613" x1="1458.0649" stroke-miterlimit="10" stroke-linecap="round" stroke-width="4" stroke="#ffffff" fill="none" opacity="0.42" />

         <line id="line6689" y2="1542.613" x2="1745.932" y1="1542.613" x1="1718.371" stroke-miterlimit="10" stroke-linecap="round" stroke-width="4" stroke="#ffffff" fill="none" opacity="0.42" />

         <line id="line6691" y2="1542.613" x2="2012.099" y1="1542.613" x1="1943.729" stroke-miterlimit="10" stroke-linecap="round" stroke-width="4" stroke="#ffffff" fill="none" opacity="0.42" />

         <line id="line6693" y2="1580.4821" x2="801.38599" y1="1580.4821" x1="739.46698" stroke-miterlimit="10" stroke-linecap="round" stroke-width="4" stroke="#ffffff" fill="none" opacity="0.42" />

         <line id="line6695" y2="1580.4821" x2="1662.25" y1="1580.4821" x1="1576.35" stroke-miterlimit="10" stroke-linecap="round" stroke-width="4" stroke="#ffffff" fill="none" opacity="0.42" />

         <line id="line6697" y2="1580.4821" x2="1872.931" y1="1580.4821" x1="1837.1541" stroke-miterlimit="10" stroke-linecap="round" stroke-width="4" stroke="#ffffff" fill="none" opacity="0.42" />

         <line id="line6699" y2="1580.4821" x2="1466.068" y1="1580.4821" x1="1430.291" stroke-miterlimit="10" stroke-linecap="round" stroke-width="4" stroke="#ffffff" fill="none" opacity="0.42" />

         <line id="line6701" y2="1580.4821" x2="1336.079" y1="1580.4821" x1="1054.517" stroke-miterlimit="10" stroke-linecap="round" stroke-width="4" stroke="#ffffff" fill="none" opacity="0.42" />

         <line id="line6703" y2="1703.103" x2="954.66498" y1="1703.103" x1="1040.5649" stroke-miterlimit="10" stroke-linecap="round" stroke-width="4" stroke="#ffffff" fill="none" opacity="0.42" />

         <line id="line6705" y2="1703.103" x2="1150.847" y1="1703.103" x1="1186.624" stroke-miterlimit="10" stroke-linecap="round" stroke-width="4" stroke="#ffffff" fill="none" opacity="0.42" />

         <line id="line6707" y2="1703.103" x2="1280.8361" y1="1703.103" x1="1562.3979" stroke-miterlimit="10" stroke-linecap="round" stroke-width="4" stroke="#ffffff" fill="none" opacity="0.42" />

         <line id="line6709" y2="1618.351" x2="1070.146" y1="1618.351" x1="869.41302" stroke-miterlimit="10" stroke-linecap="round" stroke-width="4" stroke="#ffffff" fill="none" opacity="0.42" />

         <line id="line6711" y2="1618.351" x2="1197.072" y1="1618.351" x1="1130.218" stroke-miterlimit="10" stroke-linecap="round" stroke-width="4" stroke="#ffffff" fill="none" opacity="0.42" />

         <line id="line6713" y2="1618.351" x2="1739.1379" y1="1618.351" x1="1722.8571" stroke-miterlimit="10" stroke-linecap="round" stroke-width="4" stroke="#ffffff" fill="none" opacity="0.42" />

         <line id="line6715" y2="1618.351" x2="1602.418" y1="1618.351" x1="1293.9399" stroke-miterlimit="10" stroke-linecap="round" stroke-width="4" stroke="#ffffff" fill="none" opacity="0.42" />

         <line id="line6717" y2="1656.22" x2="1336.079" y1="1656.22" x1="1011.257" stroke-miterlimit="10" stroke-linecap="round" stroke-width="4" stroke="#ffffff" fill="none" opacity="0.42" />

         <line id="line6719" y2="1656.22" x2="1458.0649" y1="1656.22" x1="1390.2371" stroke-miterlimit="10" stroke-linecap="round" stroke-width="4" stroke="#ffffff" fill="none" opacity="0.42" />

         <line id="line6721" y2="1656.22" x2="1602.418" y1="1656.22" x1="1579.363" stroke-miterlimit="10" stroke-linecap="round" stroke-width="4" stroke="#ffffff" fill="none" opacity="0.42" />
      </g>
      <g id="g6727">
         <path id="path6725" d="m 960.236,1800 c -70.422,-54.091 -140.844,-137.995 -211.266,-192.086 -7.397,-5.682 -14.96,-11.455 -23.764,-14.534 -8.638,-3.021 -17.96,-3.27 -27.107,-3.534 -67.46,-1.951 -134.848,-6.401 -201.979,-13.338 -32.032,-3.31 -108.396,-15.553 -108.396,-15.553 -79.405,-128.632 -172.596,-281.706 -252,-410.339 C 115.439,1117.755 94.157,1083.845 61.935,1062.56 43.331,1050.27 21.938,1042.866 0,1038.52 V 1800 Z" fill="#531331" />
      </g>
      <path id="path6729" d="m 2788.065,1062.559 c -32.222,21.285 -53.504,55.195 -73.789,88.056 -15.633,25.325 -147.47,277.909 -147.47,277.909 0,0 -433.375,161.835 -442.013,164.855 -8.804,3.079 -16.367,8.852 -23.764,14.534 -30.092,23.114 -42.148,32.55 -71.278,60.974 L 2033.779,1800 H 2076.057 2850 v -761.48 c -21.938,4.346 -43.331,11.75 -61.935,24.039 z" fill="#531331" />
      <g id="g6733">
         <path id="path6731" d="m 2055.378,1649.409 c -4.059,-3.626 -9.698,-5.071 -15.14,-5.059 -5.442,0.012 -10.785,1.345 -16.063,2.67 8.739,-4.302 18.105,-7.327 27.71,-8.949 -5.968,-10.613 -17.947,-16.071 -29.146,-20.851 13.109,-0.182 26.246,3.629 37.222,10.799 -2.038,-7.348 -5.169,-14.391 -9.258,-20.828 11.22,7.117 20.656,17.021 27.222,28.571" fill="#531331" />
      </g>
      <g id="g6737">
         <path id="path6735" d="m 2108.769,1608.479 c -6.945,-0.515 -12.819,-7.243 -12.392,-14.194 0.427,-6.951 7.081,-12.909 14.036,-12.57 -3.564,-8.26 -3.732,-18.501 1.651,-25.709 5.383,-7.208 17.06,-9.61 23.685,-3.525 1.428,-11.991 7.441,-23.378 16.537,-31.32 2.975,-2.597 6.342,-4.873 10.156,-5.899 4.529,-1.22 9.389,-0.589 13.846,0.874 9.651,3.167 17.927,10.319 22.459,19.409 4.532,9.09 5.264,20.003 1.986,29.617 -1.024,3.002 -2.45,5.921 -4.615,8.238 -1.978,2.117 -4.488,3.649 -6.989,5.111 -24.679,14.419 -51.843,24.571 -79.929,29.872" fill="#531331" />
      </g>
      <g id="g6741">
         <path id="path6739" d="m 788.28,1656.63 c -0.252,-15.625 24.082,-65.327 21.451,-77.799 -2.251,-10.672 -6.236,-20.898 -8.987,-31.453 -5.316,-20.397 -5.951,-41.681 -6.556,-62.751 2.969,-0.527 5.938,-1.055 8.908,-1.582 -4.238,29.434 5.005,60.54 24.629,82.884 2.151,-11.687 8.54,-22.546 17.71,-30.104 4.784,-3.943 10.25,-6.983 15.111,-10.83 10.534,-8.336 17.975,-20.495 20.602,-33.669 2.544,1.279 5.088,2.557 7.632,3.836 -9.953,14.004 -15.137,31.34 -27.114,43.659 -4.839,4.977 -10.686,9.012 -14.799,14.603 -6.272,8.525 -35.171,81.943 -38.464,108.886" fill="#531331" />
      </g>
      <g id="g6745">
         <path id="path6743" d="m 808.317,1495.962 c -10.496,3.956 -22.077,4.988 -33.107,2.952 -6.124,-1.131 -12.227,-3.277 -16.935,-7.354 -4.708,-4.077 -7.823,-10.333 -6.996,-16.506 1.359,-10.149 12.541,-16.33 22.774,-16.688 -9.641,-1.414 -17.329,-9.146 -21.75,-17.829 -8.54,-16.772 -5.76,-39.898 9.41,-51.039 9.279,-6.814 21.405,-8.34 32.917,-8.229 11.512,0.11 23.096,1.622 34.487,-0.043 -1.788,-6.265 0.135,-13.444 4.814,-17.978 4.68,-4.533 11.916,-6.227 18.121,-4.24 -0.067,-7.47 1.911,-14.949 5.662,-21.409 1.177,-2.027 2.607,-4.03 4.685,-5.114 1.995,-1.04 4.339,-1.108 6.589,-1.094 15.204,0.095 30.387,2.899 44.622,8.241 4.712,1.769 9.462,3.91 12.886,7.599 5.763,6.21 6.62,15.775 4.316,23.928 -2.303,8.153 -7.288,15.242 -12.186,22.155 7.367,-0.835 15.019,3.697 17.828,10.559 2.809,6.862 0.528,15.459 -5.311,20.028 14.011,8.231 27.697,19.954 30.656,35.932 3.498,18.891 -10.47,38.21 -28.63,44.479 -18.161,6.27 -38.797,1.313 -54.909,-9.153 -16.676,14.22 -41.819,17.604 -61.661,8.299 -3.455,-1.62 -7.165,-4.245 -7.263,-8.06" fill="#531331" />
      </g>
      <path id="path6747" d="m 0,1111.096 c 0,0 42.955,20.229 54.756,64.059 11.8,43.83 64.48,225.577 64.48,225.577 l -46.04,109.565 203.449,71.922 39.014,108.677 256.551,3.979 L 717.264,1800 H 0 Z" fill="#3f0021" />
      <g id="g6773">
         <g id="g6751">
            <path id="path6749" d="m 520.235,1161.923 c 30.224,4.101 59.192,17.055 82.398,36.849 7.074,6.034 14.206,14.722 11.549,23.632 -1.792,6.011 -7.47,9.826 -12.088,14.071 -4.618,4.245 -8.661,10.816 -5.99,16.492 1.264,2.685 3.788,4.525 6.257,6.172 24.793,16.542 54.718,26.01 75.325,47.543 7.398,7.73 13.438,19.854 7.337,28.644 -2.328,3.354 -6.387,6.341 -5.754,10.375 0.282,1.798 1.503,3.298 2.785,4.59 7.053,7.103 16.911,10.51 25.41,15.796 8.5,5.286 16.333,14.226 14.845,24.124 -0.743,4.94 -3.704,9.224 -6.636,13.269 -9.639,13.296 -19.997,26.295 -32.9,36.453 -12.903,10.158 -28.659,17.362 -45.079,17.596 -25.408,0.362 -47.755,-15.364 -70.94,-25.765 -2.435,-1.093 -5.007,-2.151 -7.671,-1.992 -3.462,0.207 -6.429,2.405 -9.31,4.337 -9.712,6.513 -21.532,10.929 -33.047,8.887 -11.772,-2.088 -21.276,-10.417 -31.605,-16.439 -2.53,-1.475 -5.226,-2.849 -8.146,-3.079 -4.695,-0.369 -9.033,2.235 -13.202,4.426 -37.016,19.452 -83.093,10.563 -120.414,-8.298 -11.966,-6.047 -24.119,-13.78 -29.638,-25.998 -6.968,-15.425 0.012,-35.701 14.998,-43.569 4.807,-2.524 10.26,-3.906 14.537,-7.25 4.276,-3.344 6.979,-9.77 3.899,-14.241 -2.292,-3.326 -7.374,-5.215 -7.242,-9.252 0.054,-1.643 1.049,-3.088 2.043,-4.397 26.761,-35.258 74.921,-44.675 112.955,-67.318 1.568,-0.933 3.255,-2.068 3.683,-3.842 0.766,-3.175 -2.755,-5.499 -5.379,-7.444 -11.304,-8.377 -11.459,-26.29 -3.851,-38.125 7.608,-11.835 20.707,-18.847 33.55,-24.593 12.482,-5.585 25.567,-10.528 39.229,-11.1" fill="#3f0021" />
         </g>
         <g id="g6755">
            <path id="path6753" d="m 422.926,1415.584 c -1.748,16.995 14.31,76.848 17.269,78.751 16.722,10.757 33.444,21.515 50.167,32.272 v 0 c 15.138,-5.425 26.714,-5.994 42.572,-8.658 9.299,-1.562 19.418,-2.997 26.028,-9.722 4.169,-4.241 6.313,-10.021 8.247,-15.644 7.989,-23.23 14.357,-47.017 19.045,-71.131 l 11.409,22.598 c -5.174,18.694 -10.349,37.387 -15.522,56.081 -1.846,6.669 -3.77,13.503 -7.863,19.083 -9.342,12.733 -26.782,15.454 -42.024,19.588 -4.445,1.206 -9.018,2.719 -12.287,5.963 -2.528,2.507 -4.05,5.828 -5.496,9.081 -15.701,35.299 -36.691,134.852 -47.046,172.072 l -61.379,-6.391 c 16.358,-39.085 51.545,-134.102 62.234,-175.102 0.108,-0.414 0.224,-0.83 0.338,-1.246 -12.069,-8.218 -24.137,-16.436 -36.206,-24.654 -2.403,-1.637 -4.878,-3.346 -6.406,-5.82 -1.45,-2.349 -1.905,-5.16 -2.322,-7.889 -4.651,-30.337 -8.538,-60.792 -11.655,-91.325 5.448,1.045 5.448,1.045 10.897,2.093 z" fill="#3f0021" />
         </g>
         <g id="g6759">
            <path id="path6757" d="m 705.906,1691.148 c -18.297,-8.855 -41.544,-6.343 -57.528,6.217 -1.059,-13.596 -12.758,-25.026 -26.112,-27.794 -13.353,-2.768 -27.568,2.192 -37.914,11.077 2.762,-15.064 -6.862,-30.645 -20.447,-37.718 -13.584,-7.073 -30.102,-6.697 -44.727,-2.153 -14.626,4.544 -27.735,12.896 -40.447,21.438 -4.555,3.061 -9.609,8.892 -6.175,13.173 l -4.976,-1.662 c -2.13,30.788 17.771,60.098 44.095,76.205 26.324,16.107 58.038,20.953 88.889,21.752 29.894,0.775 60.153,-1.99 88.521,-11.451 9.436,-3.147 18.808,-7.133 26.285,-13.693 7.476,-6.561 12.874,-16.073 12.514,-26.013 -0.464,-12.847 -10.407,-23.778 -21.978,-29.378 z" fill="#3f0021" />
         </g>
         <g id="g6763">
            <path id="path6761" d="m 314.447,1641.703 c 10.139,-12.226 27.185,-19.292 42.48,-15.014 11.957,3.344 21.15,12.691 29.602,21.787 -1.986,-7.795 3.846,-16.192 11.519,-18.606 7.673,-2.414 16.284,0.277 22.545,5.327 6.261,5.05 10.505,12.169 13.934,19.445 v 0 c 11.55,13.183 8.385,27.255 2.967,43.923 -5.417,16.669 -19.168,30.171 -35.604,36.258 -11.193,4.145 -23.408,5.036 -35.273,4.447 -8.799,-0.437 -17.534,-1.821 -26.053,-4.067 -10.263,-2.706 -20.695,-6.826 -27.954,-14.636 -8.411,-9.049 -11.479,-21.927 -11.8,-34.277 -0.413,-15.878 3.497,-32.361 13.637,-44.587 z" fill="#3f0021" />
         </g>
         <g id="g6767">
            <path id="path6765" d="m 742.379,1594.441 c 9.4,-17.774 12.294,-38.899 8.022,-58.546 8.822,6.235 14.251,16.387 16.883,26.865 2.632,10.478 2.751,21.4 2.855,32.203 9.36,-8.12 17.16,-18.032 22.853,-29.038 0.548,17.801 -6.442,35.713 -18.902,48.437 8.284,-1.705 16.717,-2.686 25.172,-2.928 -7.301,5.703 -14.603,11.407 -21.904,17.11 l -50.915,-2.713 c 7.192,-5.616 10.445,-15.256 9.987,-24.37 -0.458,-9.114 -4.192,-17.772 -8.859,-25.613 7.192,3.827 12.686,10.725 14.808,18.593 z" fill="#531331" />
         </g>
         <g id="g6771">
            <path id="path6769" d="m 838.066,1673.326 c 9.489,-10.195 22.651,-16.896 36.477,-18.572 -6.087,-4.353 -13.964,-5.594 -21.418,-4.931 -7.454,0.663 -14.627,3.071 -21.718,5.461 3.182,-7.971 7.891,-15.33 13.797,-21.559 -11.771,3.693 -21.898,12.342 -27.387,23.39 -0.77,-5.808 -2.047,-11.548 -3.813,-17.134 -2.07,6.075 -4.139,12.15 -6.209,18.224 l 13.362,32.692 c 2.037,-5.984 7.604,-10.305 13.67,-12.08 6.067,-1.775 12.581,-1.302 18.773,-0.033 -4.141,-3.836 -9.904,-5.86 -15.534,-5.458 z" fill="#531331" />
         </g>
      </g>
      <g id="g6787">
         <g id="g6777">
            <path id="path6775" d="m 205.408,966.84 c -1.549,-2.057 -3.606,-3.756 -4.761,-6.058 -1.155,-2.301 -1.009,-5.604 1.218,-6.896 1.657,-0.961 4.219,-0.739 4.982,-2.497 0.31,-0.715 0.177,-1.537 0.017,-2.3 -1.843,-8.768 -6.315,-16.307 -11.743,-23.426 1.879,-2.449 3.214,-5.288 3.658,-8.332 1.271,-8.721 -6.095,-17.706 -14.895,-18.172 4.27,-3.685 6,-9.703 5.57,-15.326 -0.429,-5.624 -2.759,-10.93 -5.494,-15.862 -2.676,-4.827 -5.808,-9.464 -9.845,-13.227 -7.238,-6.749 -17.049,-10.305 -26.899,-11.259 -8.764,-0.849 -17.599,0.235 -26.22,2.104 -5.124,0.81 -10.193,2.006 -15.155,3.522 -5.329,1.628 -10.671,3.684 -14.888,7.326 -4.217,3.642 -7.166,9.15 -6.493,14.681 -8.378,-3.865 -18.691,-0.6 -25.49,5.637 -4.372,4.011 -7.767,9.48 -7.897,15.411 -0.028,1.27 0.103,2.525 0.358,3.753 -3.776,0.773 -7.774,0.508 -11.64,0.952 -4.716,0.542 -9.888,2.784 -11.259,7.329 -0.684,2.268 -0.284,4.706 0.153,7.035 1.434,7.655 3.237,15.33 6.707,22.302 3.47,6.973 8.763,13.258 15.755,16.69 10.819,5.31 23.589,3.103 35.639,3.349 1.266,0.026 2.583,0.094 3.693,0.703 1.442,0.791 2.268,2.336 3.111,3.748 2.842,4.763 7.013,9.054 12.363,10.515 5.47,1.493 11.234,-0.148 16.884,-0.634 1.384,-0.119 2.819,-0.161 4.117,0.333 2.088,0.794 3.419,2.791 4.761,4.576 11.921,15.849 33.477,21.388 53.303,20.875 6.357,-0.164 13.135,-1.013 17.98,-5.131 6.115,-5.199 7.237,-15.307 2.41,-21.721 z" fill="#531331" />
         </g>
         <g id="g6781">
            <path id="path6779" d="m 98.8,1032.113 c 0.073,-0.189 30.086,-60.764 30.086,-60.764 0.405,-5.839 0.517,-13.262 0.272,-20.984 -8.183,13.564 -16.116,27.42 -26.468,39.312 0.963,-27.139 5.508,-53.7 10.548,-80.182 -7.916,9.153 -19.207,40.893 -34.832,113.454 -3.857,17.912 -17.869,55.06 -24.189,72.258 l 26.91,-5.511 c 4.525,-19.578 10.436,-38.837 17.673,-57.583 z" fill="#531331" />
         </g>
         <g id="g6785">
            <path id="path6783" d="m 96.672,1094.826 c 4.648,-9.372 12.688,-17.015 22.282,-21.183 -5.314,-1.83 -11.251,-1.036 -16.475,1.037 -5.224,2.073 -9.872,5.343 -14.465,8.583 0.584,-6.42 2.398,-12.727 5.315,-18.476 -7.683,5.18 -13.121,13.575 -14.707,22.704 -1.798,-4.016 -3.947,-7.875 -6.415,-11.519 -0.189,4.817 -0.378,9.633 -0.567,14.45 l 16.622,20.674 c 0.185,-4.744 3.267,-9.047 7.254,-11.624 3.987,-2.577 8.778,-3.632 13.508,-4.045 -3.802,-1.874 -8.385,-2.097 -12.352,-0.601 z" fill="#531331" />
         </g>
      </g>
      <g id="g6797">
         <g id="g6791">
            <path id="path6789" d="m 2145.476,1420.962 c -7.277,-9.023 -19.037,-14.237 -30.61,-13.57 4.577,-3.256 8.807,-7 12.595,-11.147 1.288,-1.411 2.584,-3.001 2.756,-4.904 0.255,-2.834 -2.021,-5.206 -4.2,-7.037 -18.795,-15.794 -44.156,-23.514 -68.563,-20.869 1.677,-4.632 -0.225,-10.229 -4.2,-13.071 -2.009,-5.452 -6.157,-10.374 -11.145,-13.475 -8.77,-5.453 -19.446,-6.636 -29.72,-7.687 -3.744,-0.383 -7.583,-0.76 -11.227,0.188 -4.078,1.06 -7.552,3.685 -10.781,6.392 -7.442,6.237 -14.241,13.24 -20.257,20.862 -2.667,3.379 -5.236,6.996 -6.257,11.178 -1.021,4.182 -0.178,9.073 3.098,11.864 2.906,2.475 7.995,4.549 6.778,8.167 -0.348,1.034 -1.199,1.805 -2.016,2.527 -10.56,9.329 -21.12,18.659 -31.68,27.988 -5.272,4.658 -10.815,9.747 -12.505,16.576 -1.691,6.829 2.651,15.542 9.686,15.541 -6.671,1.295 -13.081,3.917 -18.748,7.667 -1.749,1.157 -3.479,2.478 -4.495,4.312 -1.015,1.831 -1.219,3.998 -1.214,6.092 0.033,15.355 10.677,29.559 24.593,36.049 13.916,6.49 30.425,5.946 44.908,0.844 14.482,-5.102 27.144,-14.424 38.308,-24.966 0.948,-0.895 1.993,-1.85 3.291,-1.968 1.772,-0.161 3.231,1.261 4.594,2.405 5.892,4.947 14.781,5.981 21.651,2.518 6.871,-3.463 11.327,-11.223 10.855,-18.902 12.728,6.913 28.039,8.423 42.204,5.406 14.166,-3.017 27.205,-10.357 38.082,-19.922 4.377,-3.849 8.653,-8.498 9.401,-14.278 0.686,-5.32 -1.812,-10.602 -5.182,-14.78 z" fill="#531331" />
         </g>
         <g id="g6795">
            <path id="path6793" d="m 2073.173,1558.131 c -1.812,-3.388 -3.849,-6.719 -4.813,-10.437 -1.052,-4.061 -0.76,-8.334 -0.453,-12.518 1.821,-24.83 3.882,-49.642 6.184,-74.432 l -12.948,-5.615 c -3.372,22.488 -6.743,44.976 -10.115,67.464 -0.526,-0.188 -1.115,-0.236 -1.681,-0.267 -12.311,-0.668 -24.605,-1.636 -36.869,-2.902 -1.369,-0.141 -2.807,-0.312 -3.923,-1.116 -1.209,-0.871 -1.826,-2.327 -2.385,-3.708 -4.636,-11.447 -9.272,-22.894 -13.908,-34.341 l -4.462,0.2 c 3.692,16.465 7.977,32.798 12.844,48.955 0.228,0.756 0.469,1.535 0.973,2.142 1.224,1.476 3.456,1.433 5.369,1.3 14.075,-0.979 28.281,0.024 42.087,2.932 -0.24,1.871 -0.387,3.751 -0.189,5.622 0.257,2.429 1.079,4.757 1.894,7.059 9.448,26.67 18.896,53.34 28.344,80.01 7.27,-0.803 14.343,-3.336 20.471,-7.33 -6.091,-14.951 -12.181,-29.901 -18.272,-44.852 -2.505,-6.149 -5.016,-12.311 -8.148,-18.166 z" fill="#531331" />
         </g>
      </g>
      <g id="g6807">
         <g id="g6801">
            <path id="path6799" d="m 2471.702,1125.257 c -21.585,-18.817 -50.571,-27.737 -79.205,-27.979 5.177,-8.635 4.941,-20.226 -0.585,-28.643 -5.526,-8.417 -16.067,-13.242 -26.049,-11.925 15.587,-11.213 16.809,-35.574 6.675,-51.883 -10.134,-16.309 -28.488,-25.714 -46.874,-31.249 -22.754,-6.851 -48.953,-8.494 -68.896,4.429 -26.903,17.432 -32.72,53.646 -36.013,85.533 -18.951,-4.966 -40.763,-2.463 -55.463,10.489 -14.699,12.952 -19.363,37.463 -7.133,52.768 -48.413,-2.595 -99.99,25.52 -114.331,71.833 -5.579,18.016 -4.943,39.022 6.362,54.119 9.1,12.152 23.973,18.969 38.979,21.261 15.007,2.292 57.748,-0.926 72.772,-3.107 0,0 24.167,44.823 112.734,35.966 71.958,-7.196 83.951,-32.368 83.951,-32.368 0,0 69.106,20.078 104.339,-9.594 16.179,-13.626 76.756,-80.354 8.737,-139.65 z" fill="#3f0021" />
         </g>
         <g id="g6805">
            <path id="path6803" d="m 2390.881,1250.936 c -5.121,37.423 -10.242,74.846 -15.363,112.268 -1.534,11.207 -3.163,22.71 -8.669,32.591 -5.262,9.444 -13.659,16.672 -21.882,23.691 -17.271,14.742 -34.541,29.484 -51.812,44.226 -9.642,-69.187 -8.379,-139.897 4.26,-208.605 l -17.586,19.78 c -4.109,31.351 -8.219,62.702 -12.328,94.054 -0.844,6.437 -1.677,12.884 -2.433,19.339 -1.261,-1.549 -3.581,-2.159 -5.636,-2.602 -14.554,-3.137 -28.511,-9.027 -40.913,-17.265 -2.142,-1.423 -4.32,-3.009 -5.473,-5.307 -1.076,-2.145 -1.122,-4.641 -1.146,-7.04 -0.368,-36.691 -0.737,-73.382 -1.105,-110.073 l -27.183,-21.184 c 5.532,48.864 7.943,98.081 7.212,147.252 -0.049,3.299 -0.077,6.752 1.429,9.687 1.627,3.169 4.781,5.222 7.84,7.046 19.174,11.435 40.208,19.743 62.02,24.497 0.354,-1.938 0.707,-3.877 1.06,-5.815 -0.649,8.524 -1.005,17.062 -0.837,25.613 0.495,25.221 5.418,50.112 9.535,75 7.582,45.833 12.476,92.112 14.645,138.518 19.744,-0.528 39.487,-1.056 59.23,-1.583 -21.567,-47.203 -37.296,-97.014 -47.066,-147.976 22.794,-22.144 45.587,-44.287 68.381,-66.43 5.518,-5.36 11.154,-10.884 14.411,-17.852 2.886,-6.173 3.714,-13.077 4.503,-19.845 6.189,-53.031 12.378,-106.062 18.568,-159.093 z" fill="#3f0021" />
         </g>
      </g>
      <path id="path6809" d="m 2676.351,1359.184 -1.663,77.952 -234.138,135.541 v 61.046 l -734.801,62.897 c 0,0 -12.774,1.992 -33.727,16.406 L 1545.595,1800 h 173.823 170.346 144.015 H 2850 v -592.946 z" fill="#3f0021" />
      <g id="g6813">
         <path id="path6811" d="m 1724.846,1694.761 c -1.94,-8.72 -5.179,-17.15 -9.577,-24.925 9.043,4.838 17.044,11.613 23.306,19.736 -0.487,-20.975 -10.706,-40.443 -14.42,-61.092 8.922,7.772 14.868,18.5 18.665,29.706 3.797,11.206 5.592,22.975 7.37,34.673 0.97,-13.004 2.045,-26.399 7.939,-38.031 0.406,11.204 1.444,22.384 3.11,33.471 1.153,-8.717 5.172,-17.03 11.287,-23.349 -1.767,12.63 -2.519,25.402 -2.248,38.153" fill="#3f0021" />
      </g>
      <g id="g6845">
         <g id="g6817">
            <path id="path6815" d="m 1826.137,1661.24 c -3.857,-1.168 -7.714,-2.336 -11.571,-3.504 -0.907,-0.275 -1.857,-0.575 -2.51,-1.261 -0.518,-0.545 -0.79,-1.272 -1.048,-1.978 -1.435,-3.919 -2.871,-7.837 -4.306,-11.756 3.185,-0.52 6.273,-1.632 9.059,-3.262 -3.58,-1.286 -8.625,-1.816 -12.205,-3.101 0,0 -24.303,-30.502 -36.232,-42.325 9.071,1.189 18.021,3.293 26.672,6.269 2.709,0.932 12.789,4.214 12.789,4.214 0,0 -2.262,5.155 -3.604,7.686 2.178,-1.101 4.356,-2.202 6.534,-3.303 0.701,-0.354 2.405,-1.314 2.405,-1.314 0,0 1.628,1.448 2.337,2.147 8.424,8.316 14.486,18.672 20.447,28.899 1.601,2.745 3.25,6.004 2.063,8.952 1.753,0.509 3.66,0.472 5.392,-0.104 3.07,9.644 4.614,19.771 4.558,29.892 -5.302,-7.198 -12.583,-12.923 -20.827,-16.38" fill="#3f0021" />
         </g>
         <g id="g6823">
            <g id="g6821">
               <path id="path6819" d="m 1838.284,1664.019 c 6.6,12.446 11.071,25.705 13.432,39.588 0.452,2.658 4.498,1.531 4.048,-1.116 -2.421,-14.234 -7.093,-27.839 -13.855,-40.591 -1.266,-2.388 -4.892,-0.269 -3.625,2.119 z" fill="#3f0021" />
            </g>
         </g>
         <g id="g6827">
            <path id="path6825" d="m 1843.789,1574.61 c -2.637,3.8 -5.206,14.022 -6.213,18.537 1.562,1.2 3.022,2.532 4.359,3.978 -1.994,0.594 -4.104,0.796 -6.175,0.591 -0.24,4.63 -0.48,9.26 -0.72,13.891 -0.119,2.301 -0.014,8.946 -0.014,8.946 0,0 3.258,1.991 5.56,2.062 -1.513,0.755 -3.025,1.509 -4.538,2.264 2.562,10.978 6.773,21.569 12.447,31.31 4.376,-6.866 8.469,-22.717 8.469,-22.717 l 1.681,-7.038 -4.905,-4.187 h 5.803 c 3.597,-15.888 -2.835,-37.712 -15.754,-47.637" fill="#3f0021" />
         </g>
         <g id="g6833">
            <g id="g6831">
               <path id="path6829" d="m 1847.533,1614.039 c -1.094,14.3 -2.616,28.664 -2.358,43.022 0.246,13.679 2.344,27.25 5.999,40.424 0.721,2.6 4.773,1.496 4.048,-1.116 -3.737,-13.471 -5.776,-27.291 -5.872,-41.28 -0.095,-13.701 1.337,-27.403 2.381,-41.051 0.206,-2.693 -3.993,-2.68 -4.198,10e-4 z" fill="#3f0021" />
            </g>
         </g>
         <g id="g6839">
            <g id="g6837">
               <path id="path6835" d="m 1854.591,1696.107 c 5.758,-28.11 19.574,-58.305 43.318,-75.643 2.16,-1.577 0.068,-5.222 -2.119,-3.625 -24.671,18.015 -39.248,48.861 -45.248,78.152 -0.54,2.637 3.506,3.765 4.049,1.116 z" fill="#3f0021" />
            </g>
         </g>
         <g id="g6843">
            <path id="path6841" d="m 1903.633,1634.375 c 5.777,-8.273 10.859,-17.102 15.842,-25.822 -6.133,-0.623 -12.266,0.208 -18.151,2.02 -0.708,1.785 -1.522,3.57 -0.63,5.355 -0.801,-1.601 -1.154,-3.194 -1.825,-4.533 -4.949,1.77 -9.694,4.202 -14.076,7.015 -4.832,3.101 -9.372,6.699 -13.032,11.048 -0.879,1.045 -1.691,2.14 -2.461,3.263 0.933,1.866 2.473,3.732 3.406,5.599 -1.942,0 -3.884,-0.679 -5.825,-1.559 -0.902,1.701 -1.717,3.445 -2.368,5.249 -2.867,7.953 -5.688,20.044 -5.389,28.452 l 0.704,1.678 c 7.32,-4.069 14.674,-8.159 21.271,-13.256 0.25,-0.193 0.487,-0.4 0.734,-0.596 -0.727,-1.457 -1.667,-2.704 -0.731,-4.575 0,2.146 1.462,2.464 2.892,2.823 6.436,-5.437 11.971,-11.724 16.969,-18.461 -2.099,-0.887 -3.472,-3.954 -5.867,-3.954 2.846,0 5.691,-0.639 8.537,0.254 z" fill="#3f0021" />
         </g>
      </g>
      <g id="g6849">
         <path id="path6847" d="m 282.02,1284.388 c 3.349,-7.279 6.697,-14.558 10.046,-21.837 0.497,-1.081 1.51,-2.373 2.587,-1.868 0.489,0.229 0.745,0.763 0.963,1.258 2.62,5.934 5.239,11.867 7.859,17.801 9.953,-21.245 20.879,-42.035 32.732,-62.282 7.19,16.798 12.837,34.255 16.847,52.082 2.518,-5.194 5.037,-10.387 7.555,-15.581 0.301,-0.621 0.627,-1.271 1.201,-1.655 2.011,-1.344 4.147,1.538 4.867,3.847 1.025,3.285 2.05,6.569 3.075,9.854 3.046,-6.608 6.092,-13.217 9.138,-19.825 2.846,5.708 4.666,11.926 5.346,18.267" fill="#672140" />
      </g>
      <g id="g6853">
         <path id="path6851" d="m 626.394,1252.516 c 1.633,-4.913 4.485,-9.415 8.227,-12.992 2.103,6.757 4.207,13.513 6.31,20.27 10.736,-18.781 22.958,-36.712 36.512,-53.572 4.51,12.366 7.871,25.15 10.025,38.135 1.79,-4.055 4.37,-7.759 7.551,-10.845 1.098,4.875 2.196,9.75 3.293,14.625 3.849,-3.206 7.698,-6.412 11.547,-9.619 3.386,11.433 5.51,23.24 6.323,35.136 5.175,-7.136 10.35,-14.272 15.525,-21.409 3.271,4.498 5.12,10.015 5.221,15.576 3.54,-2.843 7.079,-5.686 10.619,-8.529 2.818,6.746 4.806,13.838 5.906,21.065" fill="#672140" />
      </g>
      <g id="g6857">
         <path id="path6855" d="m 905.544,1312.947 c 2.202,-7.756 5.193,-15.288 8.911,-22.442 0.525,8.947 2.151,17.828 4.829,26.381 1.762,-4.772 4.119,-9.324 7,-13.517 4.38,6.528 -1.477,17.482 4.721,22.319 4.909,-16.495 11.2,-32.578 18.785,-48.026 0.883,-1.799 2.825,-3.904 4.475,-2.766 4.036,22.591 6.858,45.399 8.449,68.293 4.037,-8.667 8.075,-17.335 12.112,-26.002 2.097,8.934 3.617,18.004 4.545,27.133 3.255,-4.885 6.51,-9.769 9.765,-14.654 1.598,7.009 2.16,14.253 1.661,21.424" fill="#672140" />
      </g>
      <g id="g6871">
         <g id="g6861">
            <path id="path6859" d="m 1497.291,1320.684 16.815,-3.483 c -3.094,-9.412 -6.768,-18.633 -11.011,-27.586 -2.742,10.183 -4.685,20.582 -5.804,31.069 z" fill="#672140" />
         </g>
         <g id="g6865">
            <path id="path6863" d="m 1514.674,1318.925 c 0.213,-0.657 0.418,-1.316 0.63,-1.973 l -1.198,0.248 c 0.189,0.575 0.383,1.149 0.568,1.725 z" fill="#672140" />
         </g>
         <g id="g6869">
            <path id="path6867" d="m 1569.418,1305.741 15.74,-3.261 c -1.44,-8.011 -3.783,-15.86 -6.969,-23.351 -3.032,8.486 -6.064,16.971 -9.096,25.457 -4.155,-14.992 -9.382,-29.687 -15.649,-43.926 -2.271,8.859 -4.366,17.762 -6.309,26.698 -3.562,-11.791 -7.643,-23.425 -12.229,-34.856 -6.157,21.595 -12.698,43.081 -19.602,64.449 l 31.57,-6.54 21.124,-3.729 c 0.062,0.15 0.123,0.3 0.185,0.45 0.061,-0.172 0.123,-0.344 0.184,-0.515 l 1.235,-0.218 c -0.059,-0.219 -0.124,-0.438 -0.184,-0.658 z" fill="#672140" />
         </g>
      </g>
      <g id="g6881">
         <g id="g6875">
            <path id="path6873" d="m 1672.606,1265.626 c -0.309,-4.815 -0.574,-10.277 -4.256,-13.395 -2.504,6.534 -4.865,13.122 -7.096,19.753 -1.329,-9.679 -2.266,-19.412 -2.777,-29.168 -0.293,-5.584 -0.545,-11.484 -3.582,-16.179 -2.701,13.254 -5.403,26.508 -8.104,39.762 -1.897,-6.308 -4.423,-12.351 -8.423,-17.542 -5.258,16.302 -10.517,32.604 -15.775,48.906 l 55.145,-5.661 c -2.826,-8.56 -4.554,-17.481 -5.132,-26.476 z" fill="#672140" />
         </g>
         <g id="g6879">
            <path id="path6877" d="m 1715.997,1261.869 c -0.165,-1.558 -1.097,-3.65 -2.576,-3.134 -0.757,0.264 -1.095,1.125 -1.342,1.889 -3.046,9.432 -6.093,18.865 -9.139,28.297 -3.185,-11.806 -6.371,-23.611 -9.556,-35.417 -3.946,12.824 -7.891,25.648 -11.837,38.472 l 37.149,-4.613 c -0.9,-8.498 -1.8,-16.996 -2.699,-25.494 z" fill="#672140" />
         </g>
      </g>
      <g id="g6899">
         <g id="g6885">
            <path id="path6883" d="m 1825.325,1285.672 c 0.347,-1.262 0.71,-2.519 1.076,-3.776 l -1.62,-0.09 c 0.166,1.29 0.335,2.58 0.544,3.866 z" fill="#672140" />
         </g>
         <g id="g6889">
            <path id="path6887" d="m 1821.703,1204.168 c -8.317,25.362 -16.634,50.723 -24.95,76.085 l 28.028,1.554 c -3.332,-25.67 1.091,-52.048 -3.078,-77.639 z" fill="#672140" />
         </g>
         <g id="g6893">
            <path id="path6891" d="m 1849.152,1255.448 c -3.736,7.287 -6.791,14.924 -9.112,22.777 -1.62,-9.822 -2.153,-19.823 -1.587,-29.761 -4.723,10.873 -8.746,22.048 -12.053,33.432 l 25.534,1.416 c 0.154,-9.354 -0.781,-18.725 -2.782,-27.864 z" fill="#672140" />
         </g>
         <g id="g6897">
            <path id="path6895" d="m 1795.751,1251.638 c -0.231,-7.786 -0.529,-15.85 -3.987,-22.83 -6.211,14.374 -12.422,28.747 -18.633,43.121 -1.036,-5.077 -2.072,-10.153 -3.109,-15.23 -4.007,7.321 -6.903,15.25 -8.558,23.431 l 7.9,0.516 c -0.175,0.404 -0.349,0.809 -0.524,1.213 l 26.148,0.566 c 0.279,0.171 0.579,0.314 0.925,0.383 0.039,-0.12 0.079,-0.24 0.118,-0.36 l 0.635,0.014 c -0.018,-0.596 -0.035,-1.191 -0.053,-1.787 0.046,-0.141 0.092,-0.281 0.138,-0.422 l -0.151,-0.01 c -0.282,-9.536 -0.566,-19.071 -0.849,-28.607 z" fill="#672140" />
         </g>
      </g>
      <g id="g6925" opacity="0.11">
         <g id="g6903">
            <path id="path6901" d="m 642.344,589.83 c -20.96,-18.894 -55.508,-20.38 -78.013,-3.355 11.931,-32.422 -3.462,-70.679 -30.764,-91.848 -27.302,-21.169 -63.884,-27.295 -98.285,-24.121 -74.437,6.868 -143.329,56.882 -172.915,125.53 -20.809,-19.256 -53.495,-24.414 -79.222,-12.5 -25.727,11.914 -42.936,40.177 -41.711,68.502 l 512.314,15.039 c 14.606,-24.143 9.556,-58.353 -11.404,-77.247 z" fill="#ffffff" />
         </g>
         <g id="g6907">
            <path id="path6905" d="m 2073.763,561.487 c -19.895,-11.098 -47.225,-6.48 -62.37,10.538 3.773,-57.847 -48.954,-110.829 -106.819,-114.321 -57.865,-3.492 -113.47,36.978 -135.319,90.674 -33.831,-26.523 -91.468,-11.023 -107.433,28.891 -10.972,-18.167 -38.062,-20.801 -56.608,-10.483 -18.546,10.318 -29.999,29.81 -38.509,49.253 l 530.858,4.053 c 6.525,-21.827 -3.904,-47.507 -23.8,-58.605 z" fill="#ffffff" />
         </g>
         <g id="g6911">
            <path id="path6909" d="m 1889.243,236.051 c -17.031,-10.021 -40.17,-8.384 -55.62,3.935 -3.713,-49.583 -51.873,-91.448 -101.49,-88.224 -48.646,3.16 -86.568,41.661 -119.464,77.636 -13.891,-22.754 -43.852,-32.13 -70.079,-27.343 -26.226,4.787 -48.937,21.351 -67.331,40.648 -8.153,-12.141 -27.052,-12.355 -39.305,-4.371 -12.253,7.984 -19.449,21.581 -26.129,34.591 l 502.989,13.661 c 3.265,-19.489 -6.541,-40.511 -23.571,-50.533 z" fill="#ffffff" />
         </g>
         <g id="g6915">
            <path id="path6913" d="m 2540.587,352.627 c -13.082,-3.248 -27.083,1.928 -37.661,10.283 7.79,-23.822 -7.246,-51.192 -29.824,-62.072 -22.578,-10.88 -50.093,-7.431 -72.47,3.856 -22.377,11.288 -40.416,29.552 -56.734,48.575 -3.906,-16.947 -25.848,-24.184 -42.374,-18.767 -16.526,5.417 -28.604,19.318 -39.813,32.615 l 299.709,15.474 c 2.985,-13.144 -7.752,-26.716 -20.833,-29.964 z" fill="#ffffff" />
         </g>
         <g id="g6919">
            <path id="path6917" d="m 2695.093,724.839 c -2.162,-7.368 -9.385,-13.863 -16.925,-12.411 -5.677,1.093 -11.103,6.31 -16.4,3.994 -0.036,-19.817 -2.022,-43.258 -19.061,-53.378 -16.548,-9.828 -38.212,-0.858 -52.486,12.052 -12.451,11.261 -22.215,25.474 -28.26,41.137 -10.855,-9.642 -31.406,-1.891 -33.19,12.517 l 165.345,18.857 c 1.574,-7.516 3.138,-15.4 0.977,-22.768 z" fill="#ffffff" />
         </g>
         <g id="g6923">
            <path id="path6921" d="m 732.025,230.986 c -18.294,-6.876 -41.247,4.999 -46.203,23.904 -4.871,-39.41 -13.936,-85.059 -49.47,-102.784 -29.271,-14.601 -65.896,-2.889 -90.695,18.441 -24.799,21.33 -40.95,50.677 -59.074,77.906 -1.378,2.071 -2.961,4.276 -5.35,4.97 -5.487,1.593 -9.167,-5.232 -13.149,-9.329 -8.634,-8.886 -24.686,-5.158 -32.718,4.276 -8.032,9.434 -10.191,22.378 -12.046,34.629 l 327.724,-3.594 c 8.723,-17.489 -0.726,-41.543 -19.019,-48.419 z" fill="#ffffff" />
         </g>
      </g>
   </g>
</svg>
